<?xml version="1.0" encoding="utf-8"?>
<!-- Generator: Adobe Illustrator 24.1.1, SVG Export Plug-In . SVG Version: 6.00 Build 0)  -->
<svg version="1.1" id="Layer_1" xmlns="http://www.w3.org/2000/svg" xmlns:xlink="http://www.w3.org/1999/xlink" x="0px" y="0px"
	 viewBox="0 0 1164 597.45" style="enable-background:new 0 0 1164 597.45;" xml:space="preserve">
<style type="text/css">
	.st0{fill:#FFFFFF;}
	.st1{fill-rule:evenodd;clip-rule:evenodd;fill:#FFFFFF;}
	.st2{fill:#186D3C;}
	.st3{fill-rule:evenodd;clip-rule:evenodd;fill:#186D3C;}
</style>
<g>
	<g>
		<g>
			<path class="st0" d="M106.96,184.25c21.05-31.03,33.12-48.29,55.47-55.47c50.34-16.18,92.54,38.18,157.38,73.53
				c141.4,77.08,313.77,21.89,341.85,12.9c135.5-43.39,155.91-124.04,247.68-112.23c60.13,7.74,128.71,52.31,145.77,121.26
				c16.05,64.87-18.24,132.25-63.21,167.7c-25.71,20.27-67.49,40.01-278.64,20.64c-187.36-17.19-267.54-43.11-310.89,5.16
				c-31.06,34.59-21.09,82.65-51.6,91.59c-27.26,7.99-48.48-26.47-98.04-60.63C148.3,376.71,75.24,414.41,48.91,362.27
				C22.14,309.25,76.73,228.8,106.96,184.25z"/>
			<path class="st0" d="M297.88,477.08c20.77,35.7,46.95,80.71,92.88,94.17c34.33,10.06,64.36-2,85.14-9.03
				c135.23-45.76,185.97,17.32,387-24.51c52.98-11.02,91.45-24.14,126.42-54.18c7.45-6.4,70.31-61.32,63.21-100.62
				c-22.58-125.08-762.84-142.6-794.64-12.9C251.28,396.97,273.91,435.88,297.88,477.08z"/>
			<g>
				<path class="st0" d="M126.81,347.96c-6.83,0-13.4-0.76-19.53-2.27c-9.44-2.31-18.02-6.17-25.52-11.47
					c-7.36-5.21-13.72-11.71-18.91-19.32c-4.74-6.96-8.6-14.71-11.45-23.04c-2.72-7.93-4.59-16.48-5.57-25.39
					c-0.94-8.55-1.09-17.44-0.45-26.44c1.16-16.21,4.28-31.73,9.28-46.14c4.93-14.19,11.39-27.55,19.22-39.71
					c7.81-12.13,17.01-23.26,27.33-33.08c10.18-9.68,21.3-18.2,33.07-25.32c11.77-7.12,24.28-12.95,37.18-17.33
					c12.97-4.4,26.26-7.33,39.53-8.71c5.27-0.55,10.85-0.83,16.58-0.83c2.75,0,5.6,0.06,8.46,0.19c9.15,0.41,18.35,1.68,27.36,3.8
					c9.32,2.19,18.36,5.41,26.87,9.57c9.55,4.67,18.02,10.88,25.19,18.45c7.47,7.91,13.24,17.35,17.17,28.09
					c3.97,10.87,5.5,23.29,4.53,36.93c-0.62,8.7-2.57,17.19-5.8,25.24c-2.94,7.33-6.71,14.36-11.21,20.87
					c-4.39,6.36-9.46,12.31-15.08,17.68c-5.48,5.23-11.3,9.88-17.32,13.81c-6.09,3.98-12.35,7.27-18.61,9.79
					c-6.94,2.79-13.78,4.55-20.33,5.24c-1.99,0.21-4.03,0.31-6.06,0.31c-1.08,0-2.17-0.03-3.26-0.09c-1.79-0.09-3.55-0.3-5.27-0.63
					c-3.38,9.78-7.63,19.22-12.67,28.17c-5.95,10.55-12.98,20.12-20.89,28.45c-8.3,8.73-17.72,16.02-28,21.64
					c-10.94,5.98-22.83,9.67-35.36,10.98C133.73,347.77,130.2,347.96,126.81,347.96z M142.82,177.98
					c-4.91,5.73-9.22,12.06-12.79,18.8c-3.62,6.83-6.57,14.19-8.76,21.85c-2.2,7.68-3.61,15.69-4.19,23.79
					c-0.4,5.67-0.05,11.27,1.05,16.67c0.9,4.39,2.31,7.96,4.32,10.93c1.41,2.08,3.07,3.51,5.39,4.64c1.09,0.53,2.73,0.81,4.75,0.81
					c0.29,0,0.58-0.01,0.88-0.02c2.14-0.95,3.91-2.08,5.35-3.41c2.49-2.29,4.47-4.84,6.05-7.79c1.82-3.39,3.22-7.19,4.15-11.29
					c1.15-5.09,1.93-10.41,2.32-15.81c0.44-6.23,0.48-12.44,0.12-18.47c-0.38-6.24-0.96-11.75-1.74-16.37
					c-0.02-0.13-0.04-0.27-0.06-0.4c-0.27-1.76-0.68-3.6-1.23-5.45l-2.63-8.89c-0.98-3.31-1.83-6.72-2.53-10.13
					C143.13,177.61,142.97,177.79,142.82,177.98z"/>
				<path class="st0" d="M329.04,320.29c-1.35,0-2.72-0.04-4.07-0.12c-6.4-0.4-12.81-1.74-19.13-3.98
					c-7.69-2.72-14.59-7.07-20.52-12.94c-5.98-5.91-10.59-13.32-13.71-22.04c-3.01-8.44-4.15-18.26-3.37-29.19
					c0.6-8.4,2.44-16.91,5.47-25.31c2.97-8.24,6.98-16.05,11.9-23.21c5.04-7.33,11.05-13.88,17.86-19.48
					c7.38-6.07,15.68-10.65,24.66-13.58c2.61-0.89,5.25-1.6,7.85-2.11c2.23-0.44,4.59-0.79,6.99-1.04c1.42-0.15,2.85-0.22,4.29-0.22
					c3.97,0,8.15,0.56,12.42,1.68c0.77,0.2,1.54,0.42,2.31,0.66c0.56-0.2,1.12-0.39,1.68-0.58c3.86-1.27,7.72-2.11,11.49-2.51
					c1.27-0.13,2.56-0.2,3.82-0.2c6,0,11.82,1.55,16.84,4.48c0.31,0.18,0.62,0.37,0.92,0.56c5.12,3.29,9.1,8.16,11.52,14.08
					c1.4,3.46,2.26,7.15,2.57,11.01c0.2,2.66,0.2,5.29,0.01,7.95c-0.08,1.15-0.18,2.36-0.29,3.65c0.09-0.01,0.19-0.02,0.28-0.03
					c0.97-0.1,1.97-0.15,2.96-0.15c7.18,0,14,2.72,19.19,7.67c3.52,3.37,9.2,10.72,8.35,22.58c-0.28,3.89-1.22,6.46-2.92,11.14
					c-1.27,3.47-2.95,7.37-5.15,11.96c-2.17,4.52-4.88,9.46-8.03,14.66c-3.57,5.9-7.76,11.52-12.46,16.68
					c-5.14,5.65-10.99,10.56-17.38,14.59c-7.81,4.93-16.48,7.93-25.76,8.89c-1.37,0.14-2.73,0.21-4.07,0.21
					c-3.72,0-7.33-0.54-10.74-1.6c-5.72,2.91-12.07,4.75-18.93,5.46c-1.74,0.18-3.53,0.29-5.36,0.33
					C329.98,320.28,329.51,320.29,329.04,320.29z"/>
				<path class="st0" d="M438.08,308.92c-3.42,0-6.9-0.27-10.35-0.79c-6.28-0.93-12.47-2.84-18.4-5.7
					c-6.79-3.26-12.81-7.9-17.88-13.78c-5.06-5.86-8.92-13-11.48-21.21c-2.45-7.86-3.33-16.88-2.63-26.8
					c0.67-9.41,2.9-18.95,6.63-28.34c3.69-9.29,8.64-17.86,14.7-25.49c6.28-7.91,13.77-14.65,22.25-20.05
					c5.09-3.24,10.47-5.79,16.11-7.64c0.1-3.88,0.18-7.93,0.25-12.14c0.21-13.11,0.8-28.54,1.75-45.87
					c0.13-3.26,0.33-6.65,0.57-10.09l0.71-9.94c0.01-0.19,0.03-0.38,0.05-0.57c0.91-9.71,4.51-18.34,10.42-24.97
					c7.04-7.9,17.07-12.25,28.26-12.25c0.47,0,0.95,0.01,1.44,0.02c0.28,0.01,0.57,0.02,0.85,0.04c7.83,0.51,14.3,1.84,19.78,4.07
					c7.85,3.2,14.2,8.43,18.43,15.12c3.71,5.91,5.81,12.76,6.26,20.4c0.27,4.55,0.14,9.61-0.39,15.44
					c-0.01,0.12-0.02,0.25-0.04,0.37c-0.26,2.43-0.48,4.93-0.66,7.42c-0.21,2.95-0.47,5.94-0.78,8.92
					c-1.15,13.48-2.22,26.94-3.2,39.99c-1,13.3-2.11,26.52-3.3,39.28c-0.09,1-0.19,2-0.27,2.98c1.24-0.32,2.55-0.57,3.93-0.71
					c0.93-0.1,1.89-0.15,2.84-0.15c11.94,0,22.38,7.75,25.98,19.29c1.12,3.58,1.63,7.42,1.52,11.41c-0.09,2.94-0.47,5.83-1.15,8.66
					c-0.01,0.05-0.02,0.09-0.03,0.14c-0.32,1.29-0.55,2.22-0.7,2.79c-0.2,0.75-0.43,1.48-0.69,2.21c-1.03,2.86-2.45,6.11-4.33,9.94
					c-1.88,3.82-4.18,7.83-6.84,11.94c-2.64,4.08-5.67,8.2-9.01,12.25c-3.79,4.61-8.02,8.86-12.58,12.63
					c-4.8,3.97-10.02,7.38-15.49,10.13c-6.55,3.29-13.51,5.34-20.69,6.09c-1.66,0.17-3.3,0.26-4.89,0.26
					c-3.69,0-7.21-0.45-10.54-1.35c-5.86,3.06-12.4,4.98-19.51,5.72C442.7,308.8,440.38,308.92,438.08,308.92z"/>
				<path class="st0" d="M547.9,297.47c-3.42,0-6.9-0.27-10.35-0.79c-6.28-0.93-12.47-2.85-18.4-5.7
					c-6.8-3.27-12.82-7.91-17.88-13.79c-5.06-5.86-8.92-13-11.47-21.21c-2.45-7.87-3.33-16.89-2.63-26.8
					c0.67-9.41,2.9-18.95,6.63-28.34c3.69-9.28,8.63-17.85,14.7-25.49c6.28-7.9,13.77-14.65,22.25-20.05
					c5.09-3.24,10.48-5.79,16.11-7.64c0.1-3.89,0.19-7.94,0.25-12.14c0.21-13.08,0.8-28.51,1.75-45.87
					c0.13-3.26,0.33-6.65,0.57-10.09l0.71-9.94c0.01-0.19,0.03-0.38,0.05-0.57c0.91-9.71,4.51-18.35,10.42-24.98
					c7.03-7.89,17.07-12.25,28.26-12.25c0.47,0,0.95,0.01,1.44,0.02c0.28,0.01,0.57,0.02,0.85,0.04c7.83,0.51,14.3,1.84,19.79,4.07
					c7.85,3.2,14.21,8.43,18.42,15.13c3.7,5.9,5.8,12.74,6.25,20.37c0.27,4.59,0.14,9.66-0.39,15.47c-0.01,0.11-0.02,0.23-0.03,0.34
					c-0.25,2.4-0.48,4.91-0.66,7.45c-0.21,2.92-0.47,5.92-0.78,8.91c-1.16,13.6-2.23,27.05-3.2,39.98c-1,13.39-2.11,26.61-3.3,39.28
					c-0.09,1-0.19,1.99-0.28,2.98c1.22-0.32,2.51-0.56,3.88-0.7c1-0.1,1.95-0.15,2.9-0.15c11.93,0,22.38,7.75,25.98,19.29
					c1.12,3.59,1.63,7.43,1.52,11.41c-0.09,2.94-0.48,5.86-1.17,8.71c-0.32,1.32-0.56,2.26-0.71,2.84c-0.2,0.76-0.43,1.52-0.7,2.26
					c-1.03,2.85-2.44,6.09-4.32,9.91c-1.9,3.85-4.2,7.87-6.85,11.96c-2.65,4.08-5.68,8.2-9.01,12.25
					c-3.77,4.6-8.01,8.85-12.59,12.63c-4.79,3.96-10,7.37-15.48,10.12c-6.57,3.3-13.54,5.34-20.71,6.09
					c-1.65,0.17-3.3,0.26-4.89,0.26c-3.69,0-7.2-0.45-10.54-1.35c-5.87,3.06-12.4,4.98-19.5,5.72
					C552.52,297.35,550.2,297.47,547.9,297.47z"/>
				<path class="st0" d="M649.52,333.59c-6.81-0.03-13.35-1.29-19.44-3.77c-7.49-3.05-13.75-7.95-18.63-14.57
					c-5.75-7.8-8.26-17.63-7.44-29.2c0.37-5.27,1.86-10.66,4.43-16.04c-1.33-2.06-2.51-4.27-3.54-6.61
					c-2.07-4.74-3.59-9.95-4.49-15.48c-0.7-4.28-1.18-8.52-1.42-12.57c-0.24-3.83-0.33-7.46-0.27-10.77
					c0.05-2.91,0.12-4.98,0.22-6.6c0.07-2.34,0.21-5.2,0.4-8.51c0.21-3.59,0.48-7.4,0.81-11.33c0.35-4.11,0.73-8.14,1.15-12
					c0.48-4.43,1.09-8.61,1.81-12.44c2.19-12.02,7.94-22.19,16.63-29.41c8.16-6.78,18.83-10.78,32.63-12.22
					c1.22-0.13,2.43-0.19,3.62-0.19c6.95,0,13.34,2.18,18.45,6.04c0.85-0.68,1.72-1.34,2.62-1.97c4.42-3.1,9.7-5.71,16.16-7.98
					c0.04-0.02,0.09-0.03,0.13-0.05c6.32-2.19,11.57-3.21,16.52-3.21c0.96,0,1.92,0.04,2.86,0.12c11.41,0.99,18.17,6.5,21.85,10.94
					c4.66,5.69,7.09,12.52,7.09,19.85c0,1.93-0.05,3.62-0.16,5.17c-0.28,3.89-0.56,8.16-0.86,12.85c0.37-0.02,0.75-0.02,1.12-0.02
					c11.73,0,22.14,7.5,25.9,18.67c0.01,0.04,0.03,0.08,0.04,0.12c1.34,4.04,1.85,8.36,1.53,12.87c-0.23,3.15-0.93,6.26-2.45,10.76
					c-1.09,3.24-2.57,6.76-4.53,10.74c-1.78,3.63-3.99,7.58-6.55,11.74c-2.81,4.55-6.11,9.07-9.82,13.44
					c-3.83,4.51-8.19,8.82-12.98,12.81c-2.2,1.83-4.49,3.55-6.87,5.15c-1.52,4.57-3.2,9.01-5.03,13.26
					c-3.51,8.18-7.75,15.63-12.62,22.13c-5.48,7.33-12.01,13.46-19.4,18.21c-8.22,5.28-17.51,8.48-27.62,9.54
					c-3.38,0.35-7.09,0.52-11.35,0.52L649.52,333.59z"/>
				<path class="st0" d="M342.08,537.4c-6.82,0-13.39-0.76-19.52-2.26c-9.44-2.31-18.02-6.17-25.52-11.47
					c-7.36-5.21-13.72-11.71-18.91-19.32c-4.75-6.97-8.6-14.72-11.45-23.05c-2.72-7.93-4.59-16.47-5.57-25.39
					c-0.94-8.56-1.09-17.46-0.45-26.45c1.15-16.19,4.27-31.71,9.28-46.12c4.93-14.21,11.4-27.57,19.22-39.71
					c7.82-12.14,17.02-23.27,27.33-33.09c10.17-9.68,21.29-18.19,33.06-25.31c11.76-7.12,24.27-12.95,37.17-17.33
					c12.97-4.4,26.27-7.33,39.54-8.71c5.27-0.55,10.85-0.83,16.58-0.83c2.75,0,5.6,0.06,8.46,0.19c9.16,0.41,18.36,1.69,27.36,3.8
					c9.33,2.19,18.37,5.41,26.87,9.57c9.55,4.67,18.02,10.88,25.19,18.45c7.47,7.9,13.24,17.35,17.17,28.1
					c3.97,10.86,5.5,23.29,4.52,36.93c-0.62,8.7-2.57,17.19-5.8,25.24c-2.93,7.32-6.71,14.35-11.21,20.87
					c-4.4,6.38-9.48,12.33-15.09,17.68c-5.48,5.23-11.31,9.88-17.32,13.8c-6.09,3.98-12.35,7.27-18.61,9.79
					c-6.91,2.79-13.75,4.55-20.32,5.24c-1.99,0.21-4.02,0.31-6.05,0.31c-1.07,0-2.15-0.03-3.24-0.09c-1.8-0.09-3.57-0.31-5.29-0.63
					c-3.38,9.79-7.63,19.23-12.67,28.17c-5.95,10.55-12.98,20.12-20.89,28.45c-8.3,8.74-17.72,16.02-28,21.64
					c-10.95,5.98-22.85,9.67-35.36,10.98C349,537.22,345.47,537.4,342.08,537.4z M358.09,367.42c-4.92,5.74-9.22,12.06-12.79,18.8
					c-3.62,6.83-6.57,14.18-8.77,21.86c-2.2,7.68-3.61,15.68-4.19,23.8c-0.4,5.66-0.05,11.27,1.05,16.66
					c0.9,4.39,2.31,7.96,4.33,10.93c1.41,2.07,3.07,3.5,5.39,4.63c1.36,0.66,3.33,0.8,4.74,0.8c0.29,0,0.59-0.01,0.89-0.02
					c2.14-0.95,3.9-2.08,5.35-3.41c2.49-2.29,4.47-4.84,6.05-7.79c1.83-3.4,3.22-7.19,4.15-11.28c1.15-5.1,1.93-10.42,2.32-15.82
					c0.44-6.22,0.48-12.43,0.12-18.47c-0.38-6.25-0.96-11.76-1.73-16.38c-0.02-0.12-0.04-0.25-0.06-0.37
					c-0.27-1.78-0.68-3.61-1.23-5.45l-2.63-8.89c-0.99-3.37-1.84-6.78-2.53-10.15C358.4,367.06,358.25,367.24,358.09,367.42z"/>
				<path class="st0" d="M544.34,509.73c-1.38,0-2.76-0.04-4.13-0.13c-6.36-0.4-12.78-1.73-19.11-3.97
					c-7.7-2.72-14.6-7.08-20.53-12.94c-5.96-5.89-10.58-13.31-13.7-22.02c-3.02-8.46-4.15-18.28-3.37-29.21
					c0.6-8.39,2.44-16.9,5.47-25.3c2.97-8.24,6.98-16.05,11.9-23.21c5.04-7.33,11.05-13.88,17.86-19.48
					c7.4-6.08,15.69-10.65,24.66-13.59c2.61-0.89,5.24-1.59,7.85-2.11c2.3-0.45,4.66-0.8,7.04-1.05c1.38-0.14,2.81-0.22,4.25-0.22
					c3.97,0,8.15,0.56,12.43,1.68c0.77,0.2,1.54,0.42,2.3,0.66c0.57-0.2,1.14-0.4,1.72-0.59c3.81-1.26,7.68-2.1,11.46-2.5
					c1.27-0.13,2.55-0.2,3.81-0.2c6,0,11.83,1.55,16.84,4.48c0.31,0.18,0.62,0.37,0.92,0.57c5.13,3.29,9.11,8.17,11.52,14.1
					c1.39,3.42,2.25,7.13,2.56,11.01c0.2,2.61,0.2,5.25,0.01,7.93c-0.08,1.15-0.18,2.37-0.29,3.65c0.1-0.01,0.21-0.02,0.31-0.03
					c0.99-0.1,1.96-0.15,2.92-0.15c7.17,0,13.97,2.71,19.16,7.63c0.05,0.05,0.1,0.09,0.15,0.14c3.44,3.32,9.09,10.65,8.25,22.48
					c-0.28,3.89-1.22,6.46-2.91,11.13c-1.25,3.43-2.93,7.34-5.15,11.96c-2.17,4.52-4.87,9.45-8.02,14.66
					c-3.59,5.93-7.79,11.54-12.48,16.69c-5.12,5.63-10.97,10.55-17.37,14.58c-7.82,4.94-16.5,7.93-25.77,8.9
					c-1.37,0.14-2.73,0.21-4.07,0.21c-3.72,0-7.33-0.54-10.73-1.6c-5.72,2.91-12.07,4.75-18.93,5.46c-1.71,0.18-3.51,0.29-5.35,0.33
					C545.25,509.73,544.79,509.73,544.34,509.73z"/>
				<path class="st0" d="M632.26,549.7c-5.86,0-10.97-0.79-15.62-2.4c-8.67-3.03-15.58-8.58-20.04-16.08
					c-3.69-6.11-5.59-13.43-5.99-22.99c-0.24-5.83-0.16-12.39,0.24-19.53c0.38-6.67,0.9-13.66,1.56-20.8
					c0.61-6.72,1.14-13.1,1.55-18.94c0.8-11.28,1.43-22.78,1.88-34.17c0.48-12.09,1.13-24,1.94-35.4
					c0.42-5.85,1.39-11.45,2.88-16.64c1.84-6.38,4.71-12.27,8.53-17.5c3.85-5.27,8.68-9.84,14.36-13.59
					c5.42-3.59,11.88-6.39,19.18-8.34c0.3-0.08,0.59-0.15,0.89-0.22c3.07-0.7,6.11-1.06,9.05-1.06c8.78,0,16.99,3.22,23.1,9.08
					c2.91,2.79,6.06,6.82,8.12,12.4c0.3-0.04,0.6-0.07,0.9-0.1c1.72-0.18,3.45-0.27,5.13-0.27c7.17,0,13.88,1.6,19.96,4.77
					c6.77,3.52,12.46,8.59,16.92,15.05c3.59,5.21,6.42,11.23,8.41,17.91c0.39,1.3,0.74,2.62,1.07,3.97
					c11.13,0.47,20.91,7.68,24.56,18.23c1.39,4.07,1.92,8.37,1.6,12.87c-0.19,2.66-0.65,5.41-1.36,8.18
					c-0.53,2.02-0.99,3.58-1.46,4.95c-0.09,0.26-0.19,0.53-0.29,0.79c-3.79,9.85-8.76,18.77-14.75,26.5
					c-5.92,7.65-12.71,14.29-20.16,19.75c-7.43,5.45-15.59,9.83-24.24,13.01c-7.93,2.92-16.15,4.9-24.46,5.88
					c-0.25,4.87-0.55,9.79-0.9,14.74c-0.62,8.72-2.92,16.35-6.83,22.68c-5.96,9.64-15.8,15.62-27.7,16.86
					C637.47,549.55,634.77,549.7,632.26,549.7z"/>
				<path class="st0" d="M736.66,538.82c-5.87,0-10.98-0.79-15.64-2.41c-8.64-3.02-15.56-8.57-20.02-16.07
					c-3.69-6.11-5.59-13.43-6-23c-0.24-5.84-0.16-12.41,0.24-19.53c0.38-6.63,0.9-13.63,1.56-20.79c0.61-6.62,1.13-12.99,1.55-18.95
					c0.8-11.28,1.44-22.77,1.88-34.17c0.48-12.09,1.13-24,1.94-35.4c0.42-5.83,1.38-11.42,2.88-16.63
					c1.84-6.39,4.71-12.27,8.52-17.5c3.87-5.29,8.7-9.86,14.37-13.61c5.43-3.59,11.88-6.39,19.18-8.34c0.3-0.08,0.6-0.15,0.9-0.22
					c3.06-0.7,6.1-1.06,9.03-1.06c8.78,0,16.99,3.22,23.1,9.08c2.91,2.79,6.06,6.83,8.12,12.4c0.3-0.04,0.6-0.07,0.9-0.1
					c1.72-0.18,3.45-0.27,5.13-0.27c7.17,0,13.88,1.6,19.96,4.77c6.77,3.52,12.46,8.59,16.92,15.05c3.59,5.2,6.41,11.22,8.41,17.9
					c0.39,1.31,0.75,2.64,1.07,3.98c11.11,0.47,20.89,7.66,24.55,18.19c1.41,4.11,1.93,8.42,1.6,12.94
					c-0.19,2.64-0.65,5.4-1.36,8.17c-0.52,2.01-0.98,3.57-1.46,4.94c-0.09,0.26-0.18,0.51-0.28,0.77
					c-3.79,9.86-8.76,18.78-14.76,26.51c-5.93,7.65-12.71,14.29-20.16,19.74c-7.43,5.44-15.59,9.82-24.23,13.01
					c-7.95,2.93-16.17,4.9-24.47,5.88c-0.25,4.87-0.55,9.79-0.9,14.74c-0.62,8.72-2.92,16.35-6.83,22.69
					c-5.96,9.63-15.79,15.61-27.69,16.85C741.87,538.67,739.17,538.82,736.66,538.82z"/>
				<path class="st0" d="M862.18,476.59c-1.34,0-2.7-0.04-4.05-0.12c-6.39-0.4-12.81-1.74-19.13-3.98
					c-7.69-2.72-14.6-7.07-20.53-12.95c-5.96-5.89-10.58-13.31-13.7-22.03c-3.02-8.45-4.15-18.27-3.37-29.2
					c0.59-8.38,2.44-16.9,5.47-25.3c2.97-8.24,6.98-16.05,11.9-23.21c5.04-7.32,11.05-13.88,17.86-19.47
					c7.38-6.07,15.68-10.65,24.66-13.59c2.59-0.88,5.22-1.59,7.81-2.1c2.31-0.45,4.67-0.8,7.04-1.05c1.4-0.14,2.84-0.22,4.28-0.22
					c3.97,0,8.15,0.56,12.43,1.68c0.77,0.2,1.54,0.42,2.31,0.66c0.56-0.2,1.13-0.39,1.7-0.58c3.84-1.27,7.69-2.11,11.46-2.5
					c1.29-0.13,2.57-0.2,3.82-0.2c6.01,0,11.84,1.55,16.86,4.49c0.29,0.17,0.58,0.35,0.87,0.53c5.14,3.29,9.13,8.16,11.55,14.1
					c1.4,3.45,2.26,7.14,2.57,11.01c0,0.04,0.01,0.09,0.01,0.13c0.19,2.52,0.19,5.14,0.01,7.8c-0.08,1.16-0.18,2.38-0.29,3.68
					c0.09-0.01,0.19-0.02,0.28-0.03c1.01-0.1,1.99-0.15,2.95-0.15c7.18,0,13.99,2.72,19.18,7.66c3.54,3.4,9.2,10.73,8.37,22.57
					c-0.29,3.93-1.22,6.5-2.92,11.17c-1.26,3.45-2.94,7.35-5.15,11.96c-2.17,4.52-4.87,9.45-8.02,14.66
					c-3.58,5.92-7.78,11.53-12.47,16.69c-5.14,5.65-10.98,10.55-17.38,14.59c-7.8,4.93-16.48,7.93-25.77,8.9
					c-1.36,0.14-2.73,0.21-4.08,0.21c-3.72,0-7.32-0.54-10.73-1.6c-5.72,2.91-12.07,4.75-18.94,5.46c-1.73,0.18-3.56,0.29-5.41,0.33
					C863.17,476.59,862.67,476.59,862.18,476.59z"/>
				<path class="st0" d="M971.25,465.23c-3.42,0-6.9-0.27-10.35-0.79c-6.27-0.93-12.46-2.84-18.39-5.7
					c-6.81-3.28-12.83-7.91-17.89-13.79c-5.06-5.86-8.92-13-11.47-21.21c-2.45-7.87-3.34-16.89-2.63-26.81
					c0.67-9.42,2.9-18.96,6.63-28.35c3.69-9.28,8.63-17.85,14.7-25.49c6.28-7.91,13.77-14.66,22.25-20.06
					c5.09-3.24,10.47-5.79,16.1-7.64c0.1-3.88,0.18-7.93,0.25-12.14c0.21-13.08,0.8-28.51,1.75-45.87
					c0.13-3.26,0.33-6.65,0.57-10.09l0.71-9.94c0.01-0.19,0.03-0.38,0.05-0.57c0.91-9.71,4.51-18.35,10.42-24.98
					c7.02-7.89,17.06-12.25,28.25-12.25c0.47,0,0.95,0.01,1.44,0.02c0.28,0.01,0.57,0.02,0.85,0.04c7.83,0.51,14.3,1.84,19.79,4.07
					c7.84,3.2,14.2,8.43,18.42,15.13c3.71,5.9,5.8,12.74,6.25,20.37c0.27,4.59,0.14,9.65-0.39,15.47c-0.01,0.12-0.02,0.24-0.04,0.36
					c-0.26,2.44-0.48,4.94-0.66,7.42c-0.22,2.99-0.48,5.99-0.78,8.93c-1.16,13.61-2.23,27.06-3.2,39.98
					c-0.99,13.28-2.1,26.5-3.3,39.28c-0.09,1.01-0.19,2-0.27,2.98c1.25-0.33,2.57-0.57,3.98-0.71c0.88-0.09,1.85-0.14,2.8-0.14
					c11.92,0,22.36,7.74,25.98,19.26c1.13,3.64,1.64,7.47,1.53,11.44c-0.09,2.96-0.48,5.87-1.16,8.69
					c-0.35,1.42-0.59,2.38-0.74,2.96c-0.19,0.72-0.42,1.44-0.67,2.14c-1.03,2.85-2.45,6.1-4.33,9.93
					c-1.89,3.84-4.19,7.86-6.85,11.95c-2.64,4.07-5.67,8.2-9,12.25c-3.76,4.58-7.99,8.83-12.57,12.62
					c-4.81,3.98-10.02,7.38-15.49,10.13c-6.57,3.3-13.54,5.35-20.72,6.09c-1.64,0.17-3.29,0.26-4.89,0.26
					c-3.68,0-7.2-0.45-10.53-1.35c-5.86,3.06-12.4,4.97-19.5,5.72C975.87,465.11,973.55,465.23,971.25,465.23z"/>
				<path class="st1" d="M1031.59,441.05c-8.08,0-15.82-2.95-21.8-8.31c-6.49-5.83-10.38-14.15-10.7-22.83
					c-0.31-8.51,2.82-16.93,8.62-23.23c13.14-14.82,23.81-29,32.24-42.88c-10.75-12.63-17.22-29.09-18.98-48.59
					c-1.64-18.22,1.38-34.89,3.2-41.16c0.31-1.08,0.68-2.11,1.09-3.1c-0.68-1.1-1.35-2.23-2.01-3.38
					c-6.02-10.5-12.14-25.85-13.68-36.42c-4.47-2.54-8.88-5.45-13.2-8.73c-6.91-5.24-12.26-10.42-15.54-13.83
					c-2.68-2.8-4.83-5.21-6.54-7.56c-2.23-0.55-4.28-1.11-6.11-1.65c-12.44-3.68-20.3-6.97-25.27-13.18
					c-2.76,0.16-5.57,0.23-8.42,0.23c-6.01,0-12.41,0-18.32-1.57c0,0-0.37-0.09-0.55-0.14c-7.25,3.25-14.38,5.73-19.68,6.55
					c-3.65,4.68-7.15,8.55-9.91,11.4c-7.1,7.33-12.74,12.61-20.52,14.32c-3.58,7.33-8.48,14.81-16.87,18.05
					c-1.02,5.85-2.44,11.54-4.15,16.94c-0.6,1.9-1.23,3.7-1.82,5.23c-4.03,10.42-11.11,14.79-16.84,16.59
					c-1.3,8.47-3.59,17.22-6.89,26.12c-0.78,2.11-1.6,4.13-2.36,5.84c-6.77,15.21-19.28,16.85-24.34,16.85c-0.17,0-0.34,0-0.5-0.01
					c-6.35-0.1-11.19-2.22-15.21-5.33c-0.19-0.14-0.55-0.44-0.55-0.44c-4.06-3.3-7.31-7.61-10.5-11.86
					c-3.86-5.13-9.45-13.33-14.17-23.25c-8.46-17.76-11.43-35.14-9-51.13c-9.74,2.17-17.33,2.79-20.22,2.79
					c-1.62,0-3.21-0.14-4.76-0.42c-1.99-0.35-3.89-0.93-5.69-1.7c-4.01-1.72-7.55-4.45-10.28-8.02c-0.47-0.61-0.9-1.24-1.31-1.88
					c-2.66-4.19-4.13-9.18-3.99-14.49c0.09-3.5,0.19-7.12,7.1-20.06c2.93-5.48,7.82-13.78,14.5-22.21
					c4.06-5.12,8.32-9.73,12.75-13.79c-0.07-0.22-0.14-0.45-0.21-0.67c-1.13-3.8-1.39-7.91-0.62-12.03
					c0.64-3.43,1.79-6.24,3.44-8.88c0.1-0.17,0.32-0.5,0.32-0.5c2.07-3.17,4.88-6.13,8.39-9.67c3.52-3.55,9.21-8.92,16.36-14.35
					c8.13-6.17,16.28-11.09,24.43-14.74c-0.45-4.31,0.21-8.61,1.82-12.52l0,0c3.97-9.61,10.54-14.03,30.55-20.56
					c12.56-4.1,24.69-6.42,36.13-6.92c-0.03-0.93-0.01-1.88,0.06-2.86c0.38-5.08,2.22-9.76,5.11-13.61l0,0
					c2.25-2.99,5.74-6.34,10.9-8.4c2.05-0.83,4.24-1.41,6.52-1.7l0,0.03c1.31-0.17,2.69-0.26,4.15-0.26
					c15.63,0,37.31,3.25,56.43,12.56c0.03-0.07,0.06-0.14,0.09-0.21c2.22-5.13,5.99-9.29,10.62-12.01l0,0
					c1.98-1.16,4.1-2.05,6.3-2.65c0.82-0.22,1.65-0.41,2.5-0.55C955.1,0.12,956.53,0,957.96,0c3.72,0,9.33,0,26.99,11.05
					c10.89,6.81,20.15,14.46,27.57,22.78c4.34-5.05,10.51-8.31,17.21-8.94v0c0.47-0.04,0.94-0.07,1.41-0.09c0.01,0,0.02,0,0.03,0
					c0.32-0.01,0.65-0.02,0.97-0.02c0,0,0,0,0,0c11.63,0,18.44,6.7,27.51,16.92c7.47,8.42,13.66,17.28,18.38,26.31
					c1.65,3.16,3.11,6.33,4.38,9.49c1.31-0.21,2.65-0.31,3.99-0.31c0.23,0,0.46,0,0.68,0.01c5.88,0.13,10.43,1.99,14,4.57
					c2,1.38,3.82,3.06,5.38,4.99l-0.09,0.07c2.59,3.17,4.31,6.48,5.53,8.81c1.68,3.23,4.2,8.41,6.65,14.79
					c6.01,15.7,8.62,30.78,7.94,44.65c1.53,0.29,3.02,0.72,4.46,1.27c2.92,1.1,6.06,2.89,8.91,5.77c1.77,1.76,3.31,3.8,4.53,6.06
					l-0.05,0.03c0.77,1.4,1.47,2.95,2.08,4.66c0.5,1.37,1.03,2.98,1.54,4.65c2.66,8.69,6.97,26.15,5.85,45.36
					c-0.53,9.17-2.23,17.69-5.04,25.46c1.94,0.87,3.75,1.98,5.4,3.28c2.84,2.24,5.2,5.07,6.9,8.31c0,0,0.01,0.01,0.01,0.02
					c1.23,2.35,2.11,4.92,2.56,7.63c0.06,0.37,0.12,0.74,0.17,1.12c0.01,0.11,0.03,0.23,0.04,0.34c0.07,0.65,0.12,1.3,0.14,1.96
					l-0.04,0c0.1,8.68-3.48,26.41-9.62,41.41c-11.04,27.01-28.98,44.9-52.02,51.96c-11.41,21.62-26.57,43.19-46.05,65.59
					c-0.29,0.33-0.59,0.66-0.89,0.98C1049.19,437.36,1040.51,441.05,1031.59,441.05z"/>
				<path class="st0" d="M191.59,586.13c-1.66,0-3.35-0.08-5.01-0.23c-19.03-1.75-41.45-13.4-48.67-35.51
					c-3.35-10.26-4.68-26.92,7.96-48.05c1.32-2.21,2.52-3.92,3.59-5.42c1.16-1.63,2.47-3.48,4.73-7.16c1.6-2.6,3.64-6.04,4.3-7.76
					c0.59-1.55,0.86-2.77,1.54-6.24c-33.16-7.13-62.55-21.61-87.64-43.18C4.41,374.08-0.2,289.57,0.01,265.06
					c0.1-12.47,9.12-23.09,21.41-25.21c1.47-0.25,2.95-0.38,4.4-0.38c10.67,0,20.46,6.64,24.22,16.96
					c11.29,30.92,34.13,75.31,78.85,111.21c49.44,39.69,103.36,51.46,139.89,54.35c12.46,0.98,22.42,10.76,23.64,23.2
					c1.22,12.44-6.65,23.97-18.68,27.35c-2.38,0.67-6.98,1.89-13.31,3.19c-1.63,0.67-3.4,1.25-5.34,1.8
					c2.83,12.06,3.75,24.3,2.67,36.34c-0.8,9.14-2.31,26.21-14.44,42.81C224.62,582.3,202.88,586.13,191.59,586.13z"/>
			</g>
		</g>
		<g>
			<path class="st0" d="M384.99,597.45c-13.18,0-24.43-10.05-25.66-23.44l-1.87-20.38c-0.63-6.81,1.48-13.6,5.86-18.86
				c4.38-5.26,10.66-8.57,17.48-9.19l5.71-0.52c0.8-0.07,1.6-0.11,2.39-0.11c0.53,0,1.06,0.02,1.59,0.05
				c1.27-0.32,2.58-0.54,3.91-0.66l6.35-0.58c0.79-0.07,1.58-0.11,2.37-0.11c9.33,0,18.01,5.06,22.58,13.33
				c3.43,6.21,4.09,13.42,2.1,19.97c3.8,6.63,4.52,14.72,1.72,22.05c-3.51,9.19-11.94,15.58-21.74,16.48l-6.69,0.62
				c-0.79,0.07-1.58,0.11-2.37,0.11c-0.55,0-1.1-0.02-1.64-0.05c-1.29,0.32-2.61,0.55-3.97,0.68l-5.71,0.52
				C386.58,597.41,385.78,597.45,384.99,597.45z"/>
			<path class="st0" d="M421.45,594.1c-13.18,0-24.43-10.05-25.66-23.44l-1.87-20.38c-0.63-6.81,1.48-13.6,5.86-18.86
				c4.38-5.26,10.66-8.57,17.48-9.19l4.74-0.44c0.79-0.07,1.58-0.11,2.36-0.11c0.73,0,1.45,0.03,2.17,0.09
				c1.45-0.4,2.94-0.67,4.46-0.81l5.65-0.52c0.79-0.07,1.58-0.11,2.36-0.11c6,0,11.84,2.09,16.5,5.96
				c5.26,4.38,8.57,10.66,9.19,17.48l1.87,20.38c0.63,6.81-1.48,13.6-5.86,18.86c-4.38,5.26-10.66,8.57-17.48,9.19l-4.75,0.44
				c-0.79,0.07-1.58,0.11-2.36,0.11c-0.72,0-1.44-0.03-2.16-0.09c-1.44,0.39-2.94,0.67-4.48,0.81l-5.65,0.52
				C423.04,594.06,422.24,594.1,421.45,594.1z"/>
			<path class="st0" d="M468.55,590.12c-19.2,0-34.99-14.21-36.72-33.05c-1.87-20.35,12.92-37.78,33.68-39.69
				c1.21-0.11,2.43-0.17,3.63-0.17c19.2,0,34.99,14.21,36.72,33.05c1.87,20.35-12.92,37.78-33.68,39.69
				C470.97,590.06,469.75,590.12,468.55,590.12z"/>
			<path class="st0" d="M503.02,586.6c-10.24,0-19.61-6.08-23.7-15.63l-8.48-19.77c-3.26-7.59-2.68-16.27,1.54-23.37
				c4.22-7.09,11.58-11.74,19.8-12.5l5.94-0.55c0.8-0.07,1.59-0.11,2.38-0.11c0.63,0,1.25,0.02,1.87,0.07
				c1.35-0.35,2.74-0.6,4.17-0.73l5.3-0.49c0.79-0.07,1.59-0.11,2.38-0.11c0.62,0,1.24,0.02,1.85,0.07c1.35-0.35,2.74-0.6,4.16-0.73
				l5.5-0.51c0.79-0.07,1.58-0.11,2.36-0.11c7.39,0,14.47,3.17,19.39,8.78c5.44,6.21,7.59,14.64,5.77,22.69l-4.73,20.98
				c-2.46,10.91-11.67,18.99-22.81,20.01l-6.17,0.57c-0.79,0.07-1.58,0.11-2.37,0.11c-0.55,0-1.1-0.02-1.64-0.05
				c-1.28,0.32-2.61,0.55-3.95,0.68l-6.17,0.57C504.6,586.56,503.81,586.6,503.02,586.6z"/>
			<path class="st0" d="M575.09,579.97c-10.24,0-19.61-6.09-23.7-15.63l-8.48-19.77c-3.26-7.59-2.68-16.27,1.54-23.37
				c4.22-7.09,11.59-11.74,19.81-12.49l5.94-0.55c0.79-0.07,1.58-0.11,2.37-0.11c0.62,0,1.25,0.02,1.86,0.07
				c1.35-0.35,2.75-0.6,4.17-0.73l5.3-0.49c0.79-0.07,1.59-0.11,2.38-0.11c0.62,0,1.24,0.02,1.85,0.07c1.35-0.35,2.73-0.6,4.15-0.73
				l5.5-0.51c0.79-0.07,1.58-0.11,2.37-0.11c7.39,0,14.47,3.17,19.39,8.78c5.45,6.21,7.59,14.64,5.78,22.7l-4.73,20.98
				c-2.46,10.91-11.67,18.99-22.8,20.01l-6.17,0.57c-0.79,0.07-1.59,0.11-2.38,0.11c-0.55,0-1.1-0.02-1.64-0.05
				c-1.29,0.33-2.61,0.55-3.96,0.68l-6.17,0.57C576.66,579.94,575.87,579.97,575.09,579.97z"/>
			<path class="st0" d="M618.63,575.97c-13.18,0-24.43-10.05-25.66-23.44l-1.87-20.38c-0.63-6.81,1.48-13.6,5.86-18.86
				c4.38-5.26,10.66-8.57,17.48-9.19l5.76-0.53c0.8-0.07,1.6-0.11,2.39-0.11c0.53,0,1.05,0.02,1.58,0.05
				c1.27-0.32,2.57-0.54,3.9-0.66l5.76-0.53c0.8-0.07,1.6-0.11,2.39-0.11c13.18,0,24.43,10.05,25.66,23.44l1.87,20.38
				c0.63,6.81-1.48,13.6-5.86,18.86c-4.38,5.26-10.66,8.57-17.48,9.19l-5.76,0.53c-0.8,0.07-1.6,0.11-2.39,0.11
				c-0.53,0-1.05-0.02-1.57-0.05c-1.27,0.32-2.57,0.54-3.9,0.66l-5.76,0.53C620.22,575.93,619.42,575.97,618.63,575.97z"/>
			<path class="st0" d="M654.24,572.7c-7.84,0-15.31-3.58-20.23-9.79c-5.41-6.84-7-15.95-4.22-24.22l7.12-21.2
				c3.25-9.69,11.92-16.54,22.09-17.48l5.68-0.52c0.79-0.07,1.59-0.11,2.37-0.11c9.29,0,17.94,5.02,22.53,13.24l10.9,19.55
				c4.25,7.62,4.36,16.88,0.29,24.6c-4.07,7.72-11.77,12.86-20.46,13.66l-6,0.55c-0.79,0.07-1.58,0.11-2.37,0.11
				c-1.21,0-2.42-0.09-3.6-0.25c-1.87,0.63-3.83,1.05-5.85,1.23l-5.88,0.54C655.81,572.66,655.02,572.7,654.24,572.7z"/>
			<path class="st0" d="M697.45,568.72c-6,0-11.84-2.09-16.5-5.96c-5-4.16-8.23-10.04-9.08-16.45c-4.32-4.15-7.23-9.81-7.82-16.25
				l-0.42-4.57c-0.63-6.82,1.48-13.6,5.85-18.86c4.38-5.26,10.66-8.57,17.48-9.2l18.25-1.68c0.79-0.07,1.58-0.11,2.36-0.11
				c6,0,11.84,2.09,16.5,5.96c5.26,4.38,8.57,10.66,9.19,17.48l0.42,4.57c0.59,6.42-1.22,12.5-4.7,17.36
				c0.74,13.78-9.54,25.79-23.4,27.06l-5.76,0.53C699.02,568.69,698.23,568.72,697.45,568.72z"/>
			<path class="st0" d="M754.31,563.5c-13.18,0-24.43-10.06-25.66-23.44l-0.03-0.29l-4.76-6.51c-5.48-7.5-6.51-17.37-2.69-25.84
				c3.82-8.47,11.9-14.23,21.16-15.08l6.08-0.56c0.79-0.07,1.58-0.11,2.36-0.11c0.84,0,1.68,0.04,2.51,0.12
				c1.55-0.45,3.15-0.75,4.79-0.9l5.59-0.51c0.79-0.07,1.58-0.11,2.37-0.11c8.39,0,16.32,4.09,21.17,11.06
				c5.3,7.62,6.1,17.51,2.09,25.88l-3.53,7.37l0.02,0.22c0.63,6.81-1.48,13.6-5.86,18.86c-4.38,5.26-10.66,8.57-17.48,9.19
				l-5.76,0.53C755.9,563.46,755.1,563.5,754.31,563.5z"/>
			<path class="st0" d="M792.1,560.38c-19.2,0-34.99-14.21-36.72-33.05c-1.87-20.35,12.92-37.78,33.68-39.69
				c1.21-0.11,2.43-0.17,3.63-0.17c19.2,0,34.99,14.21,36.72,33.05c0.93,10.14-2.24,19.88-8.94,27.4
				c-6.26,7.03-15.05,11.4-24.74,12.29C794.52,560.32,793.3,560.38,792.1,560.38z"/>
			<path class="st0" d="M830.33,556.86c-18.75,0-33.06-13.21-34.79-32.12l-1.04-11.29c-0.63-6.82,1.48-13.6,5.86-18.86
				c4.38-5.26,10.66-8.57,17.48-9.19l5.76-0.53c0.8-0.07,1.6-0.11,2.39-0.11c0.5,0,1.01,0.01,1.5,0.04
				c1.25-0.31,2.52-0.52,3.82-0.64l5.68-0.52c0.8-0.07,1.6-0.11,2.39-0.11c13.18,0,24.43,10.05,25.66,23.44l1.04,11.29
				c1.84,20.06-11.93,36.58-32.04,38.42C832.81,556.8,831.56,556.86,830.33,556.86z"/>
			<path class="st0" d="M882.69,551.69c-13.18,0-24.43-10.05-25.66-23.44l-1.87-20.38c-0.63-6.81,1.48-13.6,5.86-18.86
				c4.38-5.26,10.66-8.57,17.48-9.2l15.98-1.47c0.79-0.07,1.58-0.11,2.36-0.11c6,0,11.85,2.09,16.5,5.96
				c5.26,4.38,8.57,10.67,9.19,17.48l0.41,4.45c0.15,1.68,0.14,3.33-0.02,4.94c0.74,2.04,1.24,4.22,1.45,6.49l0.41,4.45
				c0.63,6.81-1.48,13.6-5.86,18.86c-4.38,5.26-10.66,8.57-17.48,9.2l-16.36,1.5C884.28,551.66,883.48,551.69,882.69,551.69z"/>
			<path class="st0" d="M914.4,548.78c-7.84,0-15.31-3.58-20.23-9.79c-5.41-6.84-7-15.95-4.22-24.22l7.12-21.2
				c3.25-9.69,11.92-16.54,22.1-17.48l5.68-0.52c0.79-0.07,1.58-0.11,2.37-0.11c9.29,0,17.94,5.02,22.53,13.24l10.9,19.55
				c4.25,7.62,4.36,16.88,0.28,24.6c-4.07,7.72-11.77,12.86-20.46,13.66l-6,0.55c-0.79,0.07-1.58,0.11-2.37,0.11
				c-1.21,0-2.42-0.09-3.6-0.25c-1.87,0.63-3.83,1.05-5.85,1.23l-5.88,0.54C915.97,548.75,915.18,548.78,914.4,548.78z"/>
			<path class="st0" d="M957.61,544.81c-6,0-11.84-2.09-16.5-5.96c-5-4.16-8.23-10.04-9.08-16.46c-4.46-4.29-7.26-10.05-7.82-16.25
				l-0.42-4.57c-1.3-14.19,9.14-26.75,23.33-28.05l18.25-1.68c0.8-0.07,1.6-0.11,2.39-0.11c13.18,0,24.43,10.05,25.66,23.44
				l0.42,4.57c0.57,6.19-1.11,12.35-4.7,17.37c0.74,13.78-9.54,25.79-23.4,27.06l-5.76,0.53
				C959.18,544.77,958.39,544.81,957.61,544.81z"/>
		</g>
	</g>
	<g>
		<g>
			<g>
				<g>
					<path class="st2" d="M168.21,159.66c0.73-2.24,2.26-4.53,4.6-6.89c2.34-2.36,5.14-4.55,8.41-6.58
						c3.26-2.03,6.74-3.76,10.43-5.17c3.69-1.42,7.25-2.31,10.68-2.66c3.19,0.23,5.89,1.59,8.07,4.09c2.18,2.5,3.94,5.67,5.27,9.52
						c1.33,3.85,2.3,8.14,2.91,12.87c0.61,4.73,1,9.45,1.19,14.18c0.18,4.72,0.19,9.21,0.04,13.45c-0.16,4.24-0.34,7.78-0.55,10.62
						c-0.97,13.63-3.59,27.24-7.87,40.83c-3.05,9.62-7.03,18.79-11.95,27.52c-4.92,8.73-10.63,16.51-17.11,23.34
						c-6.49,6.83-13.71,12.42-21.68,16.77c-7.96,4.35-16.52,7-25.66,7.96c-7.81,0.81-14.87,0.45-21.18-1.1
						c-6.32-1.55-11.9-4.04-16.76-7.48c-4.86-3.44-9.02-7.7-12.48-12.79c-3.47-5.09-6.25-10.71-8.37-16.88
						c-2.11-6.17-3.56-12.78-4.33-19.84c-0.77-7.06-0.89-14.32-0.36-21.8c1-14.01,3.64-27.17,7.92-39.5
						c4.28-12.33,9.79-23.73,16.54-34.2c6.74-10.47,14.55-19.93,23.42-28.37c8.87-8.44,18.42-15.75,28.64-21.93
						c10.22-6.18,20.93-11.18,32.11-14.97c11.19-3.79,22.49-6.29,33.92-7.48c6.57-0.68,13.65-0.86,21.23-0.52
						c7.58,0.34,15.12,1.38,22.6,3.14c7.48,1.76,14.62,4.3,21.43,7.63c6.8,3.33,12.73,7.67,17.79,13.01
						c5.05,5.35,8.94,11.75,11.67,19.21c2.73,7.46,3.74,16.21,3.02,26.24c-0.43,6.06-1.77,11.88-4.01,17.47
						c-2.24,5.59-5.07,10.86-8.5,15.82c-3.42,4.96-7.32,9.53-11.68,13.69c-4.36,4.17-8.9,7.79-13.6,10.86
						c-4.71,3.07-9.42,5.56-14.14,7.46c-4.72,1.9-9.17,3.07-13.36,3.51c-1.71,0.18-3.47,0.22-5.26,0.12
						c-1.79-0.09-3.37-0.49-4.73-1.2s-2.48-1.76-3.32-3.18c-0.85-1.41-1.18-3.35-1-5.81c0.11-1.61,0.62-2.76,1.52-3.47
						c0.9-0.7,2.03-1.27,3.38-1.69c9.67-3.07,16.67-7.89,21.02-14.45c4.34-6.56,6.84-14.52,7.51-23.89
						c0.63-8.8-0.47-16.97-3.28-24.53c-2.82-7.55-7.13-13.98-12.94-19.29c-5.81-5.31-13-9.26-21.55-11.84
						c-8.56-2.58-18.31-3.3-29.26-2.16c-10.28,1.07-19.97,3.37-29.06,6.9c-9.09,3.53-17.47,8.07-25.14,13.61
						c-7.67,5.55-14.6,11.93-20.78,19.15c-6.18,7.22-11.51,15.06-15.99,23.5c-4.48,8.45-8.07,17.4-10.77,26.84
						c-2.7,9.44-4.41,19.13-5.12,29.06c-0.57,8.04-0.07,15.93,1.5,23.65c1.58,7.73,4.33,14.48,8.27,20.27
						c3.93,5.79,9.07,10.23,15.42,13.33c6.35,3.1,13.95,4.09,22.82,2.97c6.68-2.29,12.33-5.56,16.93-9.8
						c4.6-4.23,8.37-9.09,11.31-14.56c2.94-5.47,5.13-11.41,6.58-17.8c1.45-6.4,2.41-12.95,2.89-19.67
						c0.53-7.38,0.57-14.66,0.14-21.85c-0.43-7.18-1.12-13.55-2.05-19.09c-0.45-2.96-1.12-5.92-1.99-8.88
						c-0.88-2.96-1.75-5.92-2.63-8.88c-0.88-2.96-1.61-5.96-2.2-9C168.16,166,167.98,162.87,168.21,159.66z"/>
					<path class="st2" d="M385.48,200.12c-0.27,3.79-0.75,8.58-1.45,14.38c-0.7,5.8-1.35,11.6-1.95,17.39
						c-0.37,3.89-0.64,7.65-0.8,11.29c-0.16,3.63-0.13,6.82,0.1,9.57c0.23,2.75,0.71,4.93,1.45,6.54c0.73,1.62,1.77,2.35,3.1,2.21
						c2.57-0.27,5.23-1.77,7.98-4.49c2.75-2.73,5.3-5.74,7.66-9.04c2.36-3.3,4.37-6.37,6.04-9.22c1.67-2.85,2.71-4.58,3.14-5.19
						c0.95-1.41,2-2.18,3.14-2.3c0.66-0.07,1.22,0.11,1.66,0.53c0.35,0.34,0.49,1.03,0.42,2.07c-0.01,0.19-0.49,1.58-1.43,4.17
						c-0.94,2.59-2.33,5.78-4.16,9.59c-1.83,3.81-4.11,7.96-6.84,12.48c-2.73,4.51-5.89,8.74-9.48,12.68
						c-3.59,3.95-7.61,7.32-12.06,10.13c-4.45,2.81-9.34,4.5-14.68,5.05c-2.95,0.31-5.41-0.33-7.38-1.91
						c-1.97-1.58-3.61-3.71-4.93-6.39c-2.79,3.3-5.89,6.06-9.31,8.3c-3.42,2.24-7.46,3.59-12.13,4.08c-1.05,0.11-2.14,0.17-3.27,0.2
						c-1.13,0.02-2.27,0-3.4-0.07c-3.95-0.25-7.98-1.09-12.08-2.55c-4.1-1.45-7.76-3.77-10.99-6.96c-3.22-3.19-5.74-7.31-7.55-12.38
						c-1.81-5.07-2.45-11.3-1.93-18.68c0.43-6.05,1.77-12.18,4-18.38c2.23-6.2,5.2-11.97,8.89-17.34
						c3.69-5.36,8.02-10.09,12.99-14.17c4.97-4.09,10.45-7.1,16.45-9.04c1.55-0.53,3.09-0.96,4.63-1.26c1.53-0.3,3.11-0.53,4.73-0.7
						c2.19-0.23,4.7,0.03,7.53,0.76c2.83,0.74,5.55,2.01,8.16,3.8c1.16-0.4,2.67-1.03,4.53-1.88c1.86-0.85,3.82-1.62,5.91-2.31
						c2.08-0.69,4.1-1.13,6.05-1.34c1.95-0.2,3.61,0.1,4.97,0.89c0.63,0.41,1.15,1.1,1.55,2.09c0.4,0.99,0.65,2.12,0.75,3.37
						C385.58,197.37,385.58,198.7,385.48,200.12z M342.82,273.61c1.33-0.14,2.7-0.73,4.09-1.77c1.4-1.04,2.71-2.89,3.94-5.55
						c0-1.31,0.03-3.08,0.09-5.29c0.06-2.21,0.17-4.74,0.33-7.57c0.15-2.83,0.3-5.86,0.43-9.06c0.13-3.21,0.32-6.52,0.56-9.92
						l1.28-18.03c0.07-1.04,0.05-2.4-0.06-4.08c-0.12-1.68-0.4-3.29-0.86-4.84s-1.19-2.86-2.2-3.93c-1.01-1.07-2.37-1.51-4.09-1.33
						c-2.95,0.31-5.63,1.76-8.04,4.36c-2.41,2.6-4.5,5.85-6.29,9.74c-1.79,3.9-3.23,8.18-4.32,12.85c-1.09,4.67-1.79,9.18-2.1,13.53
						c-0.45,6.34-0.18,11.55,0.8,15.63c0.99,4.08,2.36,7.29,4.13,9.64c1.77,2.35,3.76,3.93,5.97,4.73
						C338.72,273.52,340.83,273.81,342.82,273.61z"/>
					<path class="st2" d="M466.42,80.66c0.4-4.27,1.73-7.67,3.99-10.21c2.26-2.54,5.46-3.74,9.61-3.61
						c4.99,0.32,8.9,1.07,11.75,2.23c2.84,1.16,4.95,2.82,6.31,4.98c1.36,2.16,2.14,4.87,2.33,8.14c0.19,3.27,0.08,7.13-0.33,11.59
						c-0.29,2.75-0.54,5.53-0.73,8.32c-0.2,2.79-0.45,5.57-0.73,8.32c-1.18,13.84-2.26,27.33-3.24,40.49
						c-0.99,13.16-2.07,26.09-3.26,38.8c-0.81,8.73-1.49,16.54-2.02,23.46c-0.54,6.91-1.05,13.68-1.52,20.31
						c-0.42,5.87-0.02,10.22,1.2,13.05c1.22,2.83,3.11,4.11,5.68,3.85c2.09-0.22,4.19-1.12,6.29-2.7c2.1-1.58,4.17-3.49,6.22-5.72
						c2.05-2.23,3.97-4.62,5.76-7.15c1.79-2.53,3.4-4.89,4.83-7.05c1.43-2.17,2.64-3.99,3.65-5.45c1-1.46,1.65-2.21,1.93-2.24
						c0.76-0.08,1.27,0.32,1.54,1.18c0.27,0.87,0.39,1.86,0.35,2.99c-0.03,1.13-0.18,2.25-0.45,3.36c-0.27,1.11-0.47,1.9-0.6,2.39
						c-0.7,1.95-1.78,4.39-3.21,7.31c-1.44,2.92-3.22,6.02-5.34,9.29s-4.56,6.58-7.3,9.92c-2.74,3.34-5.77,6.38-9.08,9.12
						c-3.32,2.74-6.86,5.06-10.63,6.96c-3.77,1.89-7.71,3.06-11.8,3.49c-3.52,0.37-6.4-0.11-8.62-1.43c-2.22-1.32-4-3.22-5.33-5.71
						c-2.78,3.2-5.83,5.84-9.14,7.93c-3.32,2.08-7.26,3.36-11.83,3.84c-3.52,0.37-7.11,0.27-10.75-0.29
						c-3.74-0.55-7.42-1.69-11.03-3.43c-3.61-1.74-6.79-4.2-9.54-7.39c-2.75-3.19-4.87-7.19-6.37-12.02
						c-1.5-4.82-2.01-10.59-1.53-17.31c0.48-6.81,2.11-13.7,4.87-20.65c2.77-6.96,6.4-13.28,10.92-18.96
						c4.51-5.68,9.81-10.46,15.9-14.34c6.09-3.88,12.75-6.19,19.99-6.94c2.28-0.24,4.7-0.35,7.25-0.33
						c0.5-9.73,0.86-21.01,1.06-33.85c0.21-12.84,0.78-27.86,1.72-45.05c0.13-3.11,0.31-6.28,0.53-9.5
						C465.94,87.38,466.18,84.07,466.42,80.66z M459.96,255.06c-0.44-4.46-0.68-9.04-0.72-13.73c-0.05-4.69,0.04-9.49,0.25-14.4
						c0.21-4.9,0.49-9.86,0.85-14.88c0.36-5.01,0.68-10.17,0.96-15.46c-0.44-1.83-1.11-3.29-2.03-4.37
						c-0.92-1.08-2.18-1.53-3.8-1.37c-2.95,0.31-5.63,1.76-8.04,4.36c-2.41,2.6-4.5,5.85-6.29,9.74c-1.79,3.9-3.23,8.18-4.32,12.85
						c-1.09,4.67-1.79,9.18-2.1,13.53c-0.45,6.34-0.18,11.55,0.8,15.63c0.99,4.08,2.36,7.29,4.13,9.64
						c1.77,2.35,3.76,3.93,5.97,4.73c2.21,0.8,4.32,1.1,6.32,0.89c1.33-0.14,2.7-0.73,4.09-1.77
						C457.42,259.43,458.73,257.63,459.96,255.06z"/>
					<path class="st2" d="M576.24,69.22c0.4-4.27,1.73-7.67,3.99-10.21c2.26-2.54,5.46-3.74,9.61-3.61
						c4.99,0.32,8.9,1.07,11.75,2.23c2.84,1.16,4.95,2.82,6.31,4.98c1.36,2.16,2.13,4.87,2.33,8.14c0.19,3.27,0.08,7.13-0.33,11.59
						c-0.29,2.75-0.53,5.53-0.73,8.32c-0.2,2.79-0.44,5.57-0.73,8.32c-1.17,13.84-2.26,27.33-3.24,40.49
						c-0.99,13.16-2.07,26.09-3.26,38.8c-0.81,8.73-1.49,16.54-2.03,23.46c-0.54,6.91-1.05,13.68-1.52,20.31
						c-0.42,5.87-0.02,10.22,1.2,13.05c1.22,2.83,3.11,4.11,5.68,3.85c2.09-0.22,4.19-1.12,6.29-2.7c2.1-1.58,4.17-3.49,6.22-5.72
						c2.05-2.23,3.97-4.62,5.76-7.15c1.79-2.53,3.39-4.89,4.83-7.05c1.43-2.17,2.65-3.99,3.65-5.45c1-1.47,1.65-2.22,1.93-2.25
						c0.76-0.08,1.27,0.32,1.54,1.18c0.27,0.87,0.39,1.86,0.36,2.99c-0.03,1.13-0.18,2.25-0.45,3.36c-0.27,1.11-0.47,1.9-0.59,2.39
						c-0.71,1.95-1.78,4.39-3.21,7.31c-1.44,2.92-3.22,6.02-5.34,9.29c-2.13,3.27-4.56,6.58-7.3,9.92
						c-2.74,3.34-5.77,6.38-9.08,9.12c-3.31,2.74-6.86,5.06-10.63,6.96c-3.78,1.89-7.71,3.06-11.8,3.48
						c-3.52,0.37-6.4-0.11-8.62-1.43c-2.22-1.32-4-3.22-5.33-5.71c-2.78,3.2-5.83,5.84-9.14,7.93c-3.32,2.08-7.26,3.36-11.83,3.84
						c-3.52,0.37-7.11,0.27-10.75-0.29c-3.74-0.55-7.42-1.69-11.03-3.43c-3.61-1.74-6.79-4.2-9.54-7.39
						c-2.75-3.19-4.88-7.19-6.37-12.02c-1.5-4.82-2.01-10.59-1.53-17.31c0.48-6.81,2.11-13.7,4.87-20.65
						c2.77-6.96,6.4-13.28,10.92-18.96c4.51-5.68,9.82-10.46,15.91-14.34c6.09-3.88,12.75-6.19,19.99-6.94
						c2.28-0.24,4.7-0.35,7.25-0.33c0.5-9.73,0.86-21.01,1.06-33.85c0.21-12.84,0.78-27.86,1.72-45.05c0.13-3.11,0.31-6.28,0.53-9.5
						C575.76,75.94,576,72.62,576.24,69.22z M569.78,243.61c-0.44-4.46-0.68-9.04-0.72-13.73c-0.05-4.69,0.04-9.49,0.25-14.4
						c0.21-4.9,0.49-9.86,0.85-14.88c0.36-5.01,0.68-10.17,0.96-15.45c-0.44-1.83-1.11-3.29-2.03-4.37
						c-0.92-1.08-2.18-1.53-3.8-1.37c-2.95,0.31-5.63,1.76-8.04,4.36c-2.41,2.6-4.5,5.85-6.29,9.74c-1.79,3.9-3.23,8.18-4.32,12.85
						c-1.09,4.67-1.79,9.18-2.1,13.53c-0.45,6.34-0.18,11.55,0.8,15.63c0.99,4.08,2.36,7.29,4.13,9.64
						c1.77,2.35,3.76,3.93,5.97,4.73c2.21,0.8,4.32,1.1,6.32,0.89c1.33-0.14,2.7-0.73,4.09-1.77
						C567.24,247.98,568.55,246.18,569.78,243.61z"/>
					<path class="st2" d="M682.26,178.91c0.36-3.79,0.82-7.18,1.36-10.14c0.54-2.97,1.51-5.61,2.9-7.91
						c1.39-2.3,3.31-4.31,5.75-6.02c2.44-1.71,5.74-3.3,9.91-4.77c3.87-1.34,6.8-1.93,8.77-1.76c1.97,0.17,3.35,0.73,4.13,1.68
						c0.78,0.95,1.17,2.09,1.17,3.4c0,1.32-0.03,2.45-0.1,3.39c-0.32,4.45-0.65,9.46-1,15.04c-0.35,5.58-0.77,11.49-1.26,17.74
						c-0.49,6.25-1.12,12.77-1.89,19.57c-0.77,6.8-1.72,13.54-2.86,20.23c3.06-0.6,5.94-1.82,8.62-3.65
						c2.68-1.83,5.17-3.92,7.46-6.27c2.29-2.35,4.36-4.82,6.2-7.41c1.84-2.58,3.45-4.96,4.83-7.12c1.38-2.16,2.55-3.98,3.51-5.44
						c0.95-1.46,1.67-2.22,2.15-2.27c0.86-0.09,1.42,0.28,1.69,1.09c0.27,0.82,0.37,1.79,0.29,2.93c-0.05,0.76-0.44,2.21-1.16,4.35
						c-0.72,2.14-1.8,4.67-3.23,7.59c-1.44,2.92-3.22,6.11-5.36,9.58c-2.14,3.46-4.65,6.89-7.54,10.3c-2.89,3.4-6.17,6.63-9.83,9.69
						c-3.67,3.06-7.7,5.66-12.11,7.81c-1.93,7.15-4.25,13.9-6.97,20.24c-2.72,6.34-5.91,11.96-9.57,16.85
						c-3.65,4.89-7.88,8.87-12.69,11.96c-4.8,3.08-10.25,4.95-16.34,5.58c-2.57,0.27-5.61,0.39-9.1,0.38
						c-3.5-0.01-6.76-0.63-9.79-1.87c-3.03-1.23-5.56-3.23-7.58-5.97c-2.03-2.75-2.85-6.77-2.47-12.07c0.16-2.27,0.96-4.8,2.38-7.58
						c1.32-2.58,3.04-4.92,5.18-7.02c2.14-2.1,4.39-3.28,6.77-3.52c1.43-0.15,2.59,0.13,3.48,0.83s1.58,1.69,2.06,2.96
						c0.48,1.26,0.82,2.71,1.04,4.33c0.22,1.62,0.41,3.27,0.57,4.94c0.17,1.67,0.35,3.34,0.57,5.01c0.21,1.67,0.56,3.11,1.04,4.33
						c0.48,1.22,1.17,2.18,2.06,2.88c0.89,0.7,2.06,0.99,3.48,0.84c4.28-0.45,7.63-2.37,10.05-5.77c2.42-3.4,4.24-7.79,5.47-13.18
						c1.24-5.39,2.12-11.52,2.66-18.38c0.54-6.87,1.07-14.04,1.6-21.51l0.22-3.12c-2.21,3.24-4.66,6.4-7.34,9.5
						c-2.68,3.1-5.6,5.94-8.76,8.52c-3.16,2.58-6.53,4.75-10.1,6.48c-3.57,1.73-7.31,2.81-11.22,3.21
						c-3.05,0.32-5.57-0.33-7.59-1.96c-2.01-1.62-3.63-3.82-4.85-6.61c-1.22-2.78-2.11-5.88-2.67-9.3
						c-0.56-3.42-0.94-6.74-1.13-9.96c-0.2-3.22-0.27-6.14-0.23-8.78c0.05-2.63,0.11-4.57,0.2-5.8c0.06-2.17,0.19-4.93,0.38-8.28
						c0.19-3.35,0.44-6.9,0.76-10.64c0.32-3.74,0.68-7.54,1.09-11.39c0.42-3.85,0.93-7.35,1.53-10.51
						c1.1-6.12,3.68-10.88,7.75-14.26c4.07-3.38,10.34-5.52,18.82-6.4c2.76-0.29,4.49,0.64,5.19,2.77c0.7,2.13,0.95,4.62,0.75,7.46
						c-0.18,2.46-0.49,5.55-0.95,9.26c-0.45,3.71-0.97,7.66-1.55,11.86c-0.58,4.19-1.13,8.5-1.63,12.92
						c-0.51,4.42-0.9,8.62-1.18,12.59c-0.22,3.03-0.32,5.81-0.31,8.35c0.01,2.53,0.16,4.73,0.45,6.58c0.29,1.85,0.73,3.28,1.32,4.3
						c0.59,1.02,1.41,1.47,2.45,1.37c1.62-0.17,3.27-0.86,4.97-2.07c1.69-1.21,3.41-2.73,5.14-4.55c1.73-1.82,3.44-3.9,5.12-6.24
						c1.68-2.33,3.31-4.71,4.9-7.13c0.5-8.32,0.89-15.22,1.19-20.69C681.6,186.77,681.92,182.32,682.26,178.91z"/>
					<path class="st2" d="M383.49,349.1c0.73-2.24,2.26-4.53,4.6-6.89c2.34-2.36,5.14-4.55,8.41-6.58
						c3.26-2.03,6.74-3.75,10.43-5.17c3.69-1.42,7.25-2.31,10.68-2.66c3.19,0.23,5.89,1.59,8.07,4.09c2.18,2.5,3.94,5.67,5.28,9.52
						c1.33,3.85,2.3,8.14,2.91,12.87c0.61,4.73,1,9.45,1.19,14.18c0.18,4.72,0.2,9.21,0.04,13.45c-0.16,4.24-0.34,7.79-0.55,10.62
						c-0.97,13.63-3.59,27.24-7.87,40.83c-3.05,9.61-7.03,18.79-11.95,27.52c-4.92,8.73-10.63,16.51-17.11,23.34
						c-6.49,6.83-13.71,12.42-21.68,16.77c-7.97,4.35-16.52,7-25.66,7.96c-7.81,0.82-14.87,0.45-21.18-1.1
						c-6.32-1.55-11.9-4.04-16.76-7.48c-4.86-3.44-9.02-7.7-12.49-12.79c-3.47-5.09-6.25-10.71-8.37-16.88
						c-2.11-6.17-3.56-12.78-4.33-19.84c-0.77-7.05-0.89-14.32-0.36-21.8c1-14.01,3.64-27.17,7.92-39.5
						c4.28-12.33,9.79-23.73,16.54-34.2c6.75-10.47,14.55-19.92,23.43-28.37c8.87-8.44,18.41-15.75,28.64-21.93
						s20.93-11.18,32.11-14.97c11.19-3.79,22.49-6.29,33.92-7.48c6.57-0.69,13.64-0.86,21.23-0.52c7.58,0.34,15.11,1.38,22.6,3.14
						c7.48,1.76,14.62,4.3,21.43,7.63c6.8,3.33,12.73,7.67,17.79,13.01c5.05,5.34,8.94,11.75,11.67,19.21
						c2.73,7.46,3.74,16.21,3.02,26.24c-0.43,6.06-1.77,11.88-4.01,17.46c-2.24,5.59-5.07,10.86-8.5,15.82
						c-3.42,4.96-7.32,9.53-11.68,13.69c-4.36,4.17-8.9,7.79-13.6,10.86c-4.71,3.08-9.42,5.56-14.14,7.46
						c-4.72,1.9-9.17,3.07-13.36,3.51c-1.71,0.18-3.47,0.22-5.25,0.12c-1.79-0.09-3.37-0.49-4.73-1.2c-1.37-0.7-2.48-1.76-3.32-3.18
						c-0.85-1.41-1.18-3.35-1-5.81c0.11-1.61,0.62-2.77,1.52-3.47c0.9-0.7,2.03-1.27,3.38-1.69c9.67-3.07,16.67-7.89,21.02-14.45
						c4.34-6.56,6.85-14.52,7.51-23.89c0.63-8.8-0.47-16.97-3.28-24.53c-2.82-7.55-7.13-13.98-12.94-19.29
						c-5.81-5.31-13-9.26-21.55-11.84c-8.56-2.58-18.31-3.3-29.26-2.16c-10.28,1.07-19.97,3.37-29.06,6.9
						c-9.09,3.53-17.47,8.07-25.14,13.61c-7.67,5.55-14.6,11.93-20.78,19.15c-6.18,7.22-11.52,15.06-15.99,23.5
						c-4.48,8.45-8.07,17.4-10.77,26.84c-2.71,9.44-4.41,19.13-5.12,29.06c-0.57,8.04-0.07,15.93,1.5,23.65
						c1.58,7.73,4.33,14.48,8.27,20.27c3.93,5.79,9.08,10.23,15.42,13.33c6.35,3.1,13.96,4.09,22.82,2.97
						c6.68-2.29,12.32-5.56,16.93-9.79c4.6-4.23,8.37-9.09,11.31-14.56c2.94-5.47,5.14-11.41,6.58-17.8
						c1.45-6.4,2.41-12.95,2.89-19.67c0.53-7.38,0.57-14.66,0.14-21.85c-0.43-7.18-1.12-13.55-2.04-19.09
						c-0.45-2.96-1.12-5.92-1.99-8.88c-0.88-2.96-1.75-5.92-2.63-8.88c-0.88-2.96-1.61-5.96-2.19-9
						C383.44,355.44,383.26,352.32,383.49,349.1z"/>
					<path class="st2" d="M600.75,389.57c-0.27,3.79-0.75,8.58-1.45,14.38c-0.7,5.8-1.35,11.6-1.95,17.39
						c-0.37,3.89-0.64,7.65-0.8,11.29c-0.16,3.64-0.13,6.82,0.1,9.57c0.23,2.75,0.71,4.93,1.45,6.54c0.74,1.61,1.77,2.35,3.1,2.21
						c2.57-0.27,5.23-1.77,7.98-4.5c2.75-2.73,5.3-5.74,7.66-9.04c2.36-3.3,4.37-6.37,6.04-9.22c1.67-2.85,2.71-4.58,3.13-5.19
						c0.95-1.41,2-2.18,3.14-2.3c0.66-0.07,1.22,0.11,1.66,0.53c0.35,0.34,0.49,1.03,0.42,2.07c-0.01,0.19-0.49,1.58-1.43,4.17
						c-0.94,2.59-2.33,5.78-4.16,9.59c-1.83,3.81-4.11,7.96-6.84,12.48c-2.73,4.51-5.89,8.74-9.48,12.68
						c-3.59,3.95-7.61,7.32-12.06,10.13c-4.45,2.81-9.34,4.5-14.68,5.05c-2.95,0.31-5.41-0.33-7.38-1.91
						c-1.97-1.58-3.61-3.71-4.93-6.39c-2.79,3.3-5.89,6.06-9.31,8.3c-3.42,2.24-7.46,3.6-12.13,4.08c-1.05,0.11-2.14,0.18-3.27,0.2
						c-1.14,0.02-2.27,0-3.4-0.07c-3.95-0.25-7.98-1.09-12.08-2.54c-4.1-1.45-7.76-3.77-10.99-6.96c-3.22-3.19-5.74-7.31-7.55-12.38
						c-1.81-5.07-2.45-11.3-1.93-18.68c0.43-6.05,1.77-12.18,4-18.38c2.24-6.2,5.2-11.98,8.89-17.34
						c3.69-5.36,8.02-10.09,12.99-14.17c4.97-4.09,10.45-7.1,16.45-9.04c1.55-0.53,3.09-0.96,4.63-1.26c1.53-0.3,3.11-0.53,4.73-0.7
						c2.19-0.23,4.7,0.03,7.53,0.76c2.83,0.74,5.55,2.01,8.16,3.8c1.16-0.4,2.67-1.03,4.53-1.88c1.86-0.85,3.82-1.62,5.91-2.31
						c2.08-0.69,4.09-1.13,6.05-1.34c1.95-0.2,3.61,0.1,4.97,0.89c0.63,0.41,1.15,1.1,1.55,2.09c0.4,0.99,0.65,2.12,0.75,3.37
						C600.85,386.81,600.85,388.15,600.75,389.57z M558.1,463.05c1.33-0.14,2.7-0.73,4.09-1.77c1.4-1.04,2.71-2.89,3.94-5.55
						c0-1.31,0.03-3.08,0.09-5.29c0.06-2.21,0.17-4.74,0.33-7.57c0.15-2.84,0.3-5.86,0.43-9.06c0.13-3.21,0.32-6.51,0.56-9.92
						l1.28-18.03c0.07-1.04,0.05-2.4-0.06-4.08c-0.12-1.68-0.4-3.29-0.86-4.84c-0.46-1.55-1.19-2.85-2.2-3.93
						c-1.01-1.07-2.37-1.52-4.09-1.34c-2.95,0.31-5.63,1.76-8.04,4.36c-2.41,2.6-4.51,5.85-6.29,9.74
						c-1.79,3.9-3.23,8.18-4.32,12.85c-1.09,4.67-1.79,9.18-2.1,13.53c-0.45,6.34-0.18,11.55,0.8,15.63
						c0.99,4.08,2.36,7.29,4.13,9.64c1.77,2.35,3.76,3.93,5.97,4.73S556.1,463.26,558.1,463.05z"/>
					<path class="st2" d="M672.05,467.23c-2.95,0.31-5.78,0.13-8.47-0.53c-1.4-0.32-2.73-0.82-4.01-1.48
						c-1.28-0.66-2.4-1.46-3.37-2.4c-0.97-0.93-1.7-2.08-2.17-3.44c-0.47-1.36-0.64-2.94-0.51-4.74c0.1-1.42,0.52-2.68,1.26-3.79
						c0.74-1.11,1.56-2.04,2.47-2.8c0.9-0.75,1.77-1.33,2.61-1.75c0.83-0.42,1.39-0.64,1.68-0.67c1.05-0.11,1.8,0.24,2.26,1.03
						c0.46,0.8,0.99,1.68,1.58,2.65c0.59,0.97,1.43,1.8,2.51,2.48c1.09,0.69,2.77,0.91,5.06,0.67c2.09-0.22,3.72-1.52,4.88-3.89
						c1.16-2.37,2.05-5.22,2.66-8.52c0.61-3.31,1-6.75,1.16-10.34c0.16-3.58,0.34-6.75,0.53-9.5c0.19-2.65,0.27-5.83,0.25-9.53
						c-0.02-3.71-0.39-7.17-1.1-10.38c-0.72-3.21-1.92-5.9-3.61-8.08c-1.69-2.17-4.11-3.1-7.25-2.77c-3.43,0.36-6.24,1.73-8.44,4.12
						c-2.2,2.39-3.95,5.41-5.25,9.07c-1.3,3.66-2.26,7.77-2.87,12.34c-0.61,4.57-1.13,9.23-1.56,13.97
						c-0.67,12-1.07,24.35-1.22,37.04c-0.15,12.7-0.71,25.91-1.69,39.62c-0.32,4.54-1.34,8.19-3.05,10.95
						c-1.71,2.76-4.52,4.35-8.42,4.75c-5.43,0.57-9.59,0.34-12.5-0.67c-2.9-1.02-5.03-2.67-6.38-4.97
						c-1.35-2.21-2.14-5.81-2.35-10.82c-0.21-5-0.14-10.67,0.22-17c0.36-6.33,0.85-12.96,1.49-19.88c0.63-6.92,1.17-13.41,1.6-19.47
						c0.82-11.54,1.47-23.21,1.93-35c0.46-11.79,1.09-23.31,1.9-34.57c0.29-4.07,0.94-7.85,1.94-11.33c1-3.49,2.53-6.63,4.57-9.42
						c2.04-2.8,4.62-5.22,7.75-7.29c3.13-2.07,7-3.71,11.62-4.95c3.75-0.86,6.59-0.36,8.54,1.51c1.86,1.78,2.64,4.65,2.36,8.63
						c-0.83,4.97-1.57,10.05-2.22,15.24c-0.65,5.19-1.27,10.49-1.84,15.9c2.61-3.56,5.6-6.97,8.95-10.23
						c3.35-3.26,7.36-5.84,12.03-7.73c2.92-1.24,6.34-2.07,10.24-2.48c4-0.42,7.5,0.16,10.51,1.72c3.01,1.57,5.54,3.84,7.6,6.82
						s3.69,6.52,4.91,10.62c1.22,4.1,1.99,8.48,2.32,13.14c0.29,3.82,0.31,7.62,0.04,11.41c-0.42,5.96-1.51,11.88-3.25,17.74
						c-1.74,5.87-3.82,11.13-6.23,15.79c3.06-1.91,5.87-4.16,8.42-6.72c2.54-2.57,5-5.24,7.38-8.03c2.79-3.29,4.98-6.22,6.58-8.79
						c1.6-2.56,2.91-4.72,3.93-6.47c1.02-1.75,1.9-3.11,2.63-4.08c0.73-0.96,1.57-1.5,2.52-1.6c0.86-0.09,1.4,0.21,1.64,0.89
						c0.23,0.68,0.32,1.54,0.24,2.58c-0.08,1.14-0.29,2.33-0.61,3.59c-0.33,1.26-0.61,2.23-0.85,2.91
						c-2.9,7.54-6.59,14.19-11.06,19.96c-4.48,5.78-9.48,10.69-15.01,14.74c-5.53,4.05-11.5,7.26-17.91,9.61
						C685.25,465.01,678.71,466.54,672.05,467.23z"/>
					<path class="st2" d="M776.45,456.35c-2.95,0.31-5.78,0.13-8.47-0.53c-1.4-0.32-2.73-0.82-4.01-1.48
						c-1.28-0.66-2.4-1.46-3.37-2.4c-0.97-0.93-1.7-2.08-2.17-3.44c-0.47-1.36-0.64-2.94-0.51-4.74c0.1-1.42,0.52-2.68,1.26-3.79
						c0.74-1.11,1.56-2.04,2.47-2.8c0.9-0.75,1.77-1.33,2.61-1.75c0.83-0.42,1.39-0.64,1.68-0.67c1.05-0.11,1.8,0.24,2.27,1.03
						c0.46,0.8,0.99,1.68,1.58,2.65c0.59,0.97,1.43,1.8,2.52,2.48c1.08,0.69,2.77,0.91,5.06,0.67c2.09-0.22,3.72-1.52,4.89-3.89
						c1.16-2.37,2.05-5.22,2.66-8.52c0.61-3.31,1-6.75,1.16-10.34c0.16-3.58,0.34-6.75,0.53-9.5c0.19-2.65,0.27-5.83,0.26-9.54
						c-0.02-3.71-0.39-7.17-1.11-10.38c-0.72-3.21-1.92-5.9-3.61-8.08c-1.69-2.17-4.1-3.1-7.24-2.77c-3.43,0.36-6.24,1.73-8.45,4.12
						c-2.2,2.39-3.95,5.41-5.25,9.07c-1.3,3.66-2.25,7.77-2.87,12.34c-0.61,4.57-1.13,9.23-1.56,13.97
						c-0.66,12-1.07,24.35-1.22,37.04c-0.15,12.7-0.71,25.9-1.69,39.62c-0.32,4.54-1.34,8.19-3.05,10.95
						c-1.71,2.76-4.52,4.35-8.42,4.75c-5.43,0.57-9.59,0.34-12.5-0.67c-2.9-1.01-5.03-2.67-6.38-4.97
						c-1.35-2.21-2.14-5.81-2.35-10.82c-0.21-5-0.14-10.67,0.22-17c0.36-6.33,0.85-12.96,1.49-19.88c0.63-6.92,1.17-13.41,1.6-19.47
						c0.82-11.54,1.47-23.21,1.93-35c0.46-11.79,1.09-23.31,1.9-34.57c0.29-4.07,0.94-7.85,1.94-11.33c1-3.49,2.53-6.63,4.57-9.43
						c2.04-2.79,4.62-5.22,7.75-7.29c3.12-2.06,7-3.71,11.62-4.95c3.75-0.86,6.59-0.36,8.54,1.51c1.86,1.78,2.64,4.65,2.36,8.63
						c-0.83,4.97-1.57,10.05-2.22,15.24c-0.65,5.19-1.27,10.49-1.84,15.9c2.62-3.56,5.6-6.97,8.95-10.23
						c3.35-3.26,7.36-5.84,12.03-7.73c2.92-1.24,6.34-2.07,10.24-2.47c4-0.42,7.5,0.16,10.51,1.72c3.01,1.57,5.54,3.84,7.6,6.82
						c2.06,2.98,3.69,6.52,4.92,10.62c1.22,4.1,1.99,8.48,2.32,13.14c0.3,3.82,0.31,7.62,0.04,11.41
						c-0.42,5.96-1.51,11.87-3.25,17.74s-3.82,11.13-6.23,15.79c3.07-1.91,5.87-4.16,8.42-6.72c2.54-2.57,5-5.24,7.38-8.03
						c2.79-3.29,4.98-6.22,6.58-8.79c1.6-2.56,2.91-4.72,3.93-6.47c1.02-1.75,1.9-3.11,2.63-4.08c0.73-0.97,1.57-1.5,2.52-1.6
						c0.86-0.09,1.4,0.21,1.64,0.89c0.23,0.68,0.31,1.54,0.24,2.58c-0.08,1.14-0.28,2.33-0.61,3.59c-0.33,1.26-0.61,2.23-0.85,2.91
						c-2.9,7.53-6.58,14.19-11.06,19.96c-4.48,5.77-9.48,10.69-15.01,14.74c-5.53,4.05-11.5,7.26-17.91,9.62
						C789.64,454.13,783.11,455.65,776.45,456.35z"/>
					<path class="st2" d="M918.65,356.43c-0.27,3.79-0.75,8.58-1.45,14.38c-0.7,5.8-1.35,11.6-1.95,17.39
						c-0.37,3.89-0.64,7.65-0.8,11.29c-0.16,3.64-0.13,6.82,0.1,9.57c0.23,2.75,0.71,4.93,1.45,6.54c0.73,1.62,1.77,2.35,3.1,2.21
						c2.57-0.27,5.23-1.77,7.98-4.5c2.75-2.73,5.3-5.74,7.66-9.04c2.36-3.3,4.37-6.37,6.04-9.22c1.67-2.85,2.71-4.58,3.14-5.19
						c0.95-1.41,2-2.18,3.14-2.3c0.66-0.07,1.22,0.11,1.66,0.53c0.35,0.34,0.49,1.03,0.42,2.07c-0.01,0.19-0.49,1.58-1.43,4.16
						c-0.94,2.59-2.33,5.78-4.16,9.59c-1.83,3.81-4.11,7.96-6.84,12.48c-2.73,4.51-5.89,8.74-9.48,12.68
						c-3.59,3.95-7.61,7.32-12.06,10.13c-4.45,2.81-9.34,4.5-14.68,5.05c-2.95,0.31-5.41-0.33-7.38-1.91
						c-1.97-1.58-3.61-3.71-4.93-6.39c-2.79,3.3-5.89,6.06-9.31,8.3c-3.42,2.24-7.46,3.6-12.13,4.08c-1.05,0.11-2.14,0.18-3.27,0.2
						c-1.13,0.02-2.27,0-3.4-0.07c-3.95-0.25-7.98-1.09-12.08-2.54c-4.1-1.45-7.76-3.77-10.99-6.96c-3.23-3.19-5.74-7.31-7.55-12.38
						c-1.81-5.07-2.45-11.3-1.93-18.68c0.43-6.05,1.77-12.18,4-18.38c2.23-6.2,5.2-11.98,8.89-17.34
						c3.69-5.36,8.02-10.09,12.99-14.17c4.97-4.09,10.45-7.1,16.45-9.04c1.55-0.53,3.09-0.96,4.63-1.26c1.53-0.3,3.11-0.53,4.73-0.7
						c2.19-0.23,4.7,0.03,7.53,0.76c2.83,0.74,5.55,2.01,8.16,3.8c1.16-0.4,2.67-1.03,4.53-1.88c1.86-0.85,3.82-1.62,5.91-2.31
						c2.08-0.69,4.1-1.13,6.05-1.34c1.95-0.2,3.61,0.1,4.97,0.89c0.63,0.41,1.15,1.1,1.55,2.09c0.4,0.99,0.65,2.12,0.75,3.37
						C918.75,353.67,918.75,355.01,918.65,356.43z M876,429.91c1.33-0.14,2.7-0.73,4.09-1.77c1.4-1.04,2.71-2.89,3.94-5.55
						c0-1.32,0.03-3.08,0.09-5.29c0.06-2.21,0.17-4.74,0.33-7.57c0.15-2.84,0.3-5.86,0.43-9.06c0.13-3.21,0.32-6.51,0.56-9.92
						l1.28-18.03c0.07-1.04,0.05-2.4-0.06-4.08c-0.12-1.68-0.4-3.29-0.86-4.84c-0.46-1.55-1.19-2.85-2.2-3.93
						c-1.01-1.07-2.37-1.52-4.09-1.34c-2.95,0.31-5.63,1.76-8.04,4.36c-2.41,2.6-4.5,5.85-6.29,9.74c-1.79,3.9-3.23,8.18-4.32,12.85
						c-1.09,4.67-1.79,9.18-2.1,13.53c-0.45,6.34-0.18,11.55,0.8,15.63c0.99,4.08,2.36,7.29,4.13,9.64
						c1.77,2.35,3.76,3.93,5.97,4.73C871.89,429.82,874,430.12,876,429.91z"/>
					<path class="st2" d="M999.59,236.97c0.4-4.27,1.73-7.67,3.99-10.21c2.26-2.54,5.46-3.74,9.61-3.61
						c4.99,0.32,8.9,1.07,11.75,2.23c2.84,1.16,4.95,2.82,6.31,4.98c1.36,2.16,2.13,4.87,2.33,8.14c0.19,3.27,0.08,7.13-0.33,11.59
						c-0.29,2.76-0.54,5.53-0.73,8.32c-0.2,2.79-0.45,5.57-0.73,8.32c-1.18,13.84-2.26,27.34-3.24,40.49
						c-0.99,13.16-2.07,26.09-3.26,38.8c-0.81,8.73-1.49,16.55-2.02,23.46c-0.54,6.91-1.05,13.68-1.52,20.31
						c-0.42,5.87-0.02,10.21,1.2,13.05c1.22,2.83,3.11,4.12,5.68,3.85c2.09-0.22,4.19-1.12,6.29-2.7c2.1-1.58,4.17-3.49,6.22-5.72
						c2.05-2.23,3.97-4.62,5.76-7.15c1.79-2.53,3.39-4.88,4.83-7.05c1.43-2.17,2.65-3.98,3.65-5.45c1-1.47,1.65-2.21,1.93-2.24
						c0.76-0.08,1.27,0.31,1.54,1.18c0.27,0.87,0.39,1.86,0.35,2.99c-0.03,1.13-0.18,2.25-0.45,3.36c-0.27,1.11-0.47,1.9-0.6,2.39
						c-0.7,1.95-1.78,4.39-3.21,7.31c-1.44,2.92-3.22,6.02-5.34,9.29c-2.12,3.27-4.56,6.58-7.3,9.92c-2.74,3.34-5.77,6.38-9.08,9.12
						c-3.32,2.74-6.86,5.06-10.63,6.96c-3.77,1.89-7.71,3.06-11.8,3.48c-3.52,0.37-6.4-0.11-8.62-1.43c-2.22-1.32-4-3.22-5.33-5.71
						c-2.78,3.2-5.83,5.84-9.14,7.93c-3.32,2.08-7.26,3.36-11.83,3.84c-3.52,0.37-7.11,0.27-10.75-0.29
						c-3.74-0.55-7.42-1.69-11.02-3.43c-3.61-1.74-6.79-4.2-9.54-7.39c-2.75-3.19-4.87-7.19-6.37-12.02
						c-1.5-4.82-2.01-10.59-1.53-17.31c0.48-6.81,2.11-13.7,4.87-20.65c2.77-6.96,6.4-13.28,10.92-18.96
						c4.51-5.68,9.81-10.46,15.9-14.34c6.09-3.88,12.75-6.19,19.99-6.94c2.28-0.24,4.7-0.35,7.25-0.33
						c0.5-9.73,0.86-21.01,1.06-33.85c0.21-12.84,0.78-27.86,1.72-45.05c0.13-3.11,0.31-6.28,0.53-9.5
						C999.11,243.69,999.35,240.38,999.59,236.97z M993.13,411.36c-0.44-4.46-0.68-9.04-0.72-13.73c-0.05-4.69,0.04-9.49,0.25-14.4
						c0.21-4.9,0.49-9.86,0.85-14.88c0.36-5.01,0.68-10.17,0.96-15.46c-0.44-1.83-1.11-3.29-2.03-4.37
						c-0.92-1.08-2.18-1.53-3.8-1.36c-2.95,0.31-5.63,1.76-8.04,4.36c-2.41,2.6-4.5,5.85-6.29,9.74c-1.79,3.9-3.23,8.18-4.32,12.85
						c-1.09,4.67-1.79,9.18-2.1,13.53c-0.45,6.34-0.18,11.55,0.8,15.63c0.99,4.08,2.36,7.29,4.13,9.64
						c1.77,2.35,3.76,3.93,5.97,4.73c2.21,0.8,4.32,1.1,6.32,0.89c1.33-0.14,2.7-0.73,4.09-1.76
						C990.6,415.73,991.9,413.93,993.13,411.36z"/>
					<path class="st3" d="M1085.19,339.43l0.54-0.06c24.99-29.72,12.45-15.21,43.3-49.71c-25.88,35.52-16.78,23.51-36.15,48.46
						c40.52-10.29,45.95-68.51,45.73-68.46c-0.01-0.25-22.56,7.9-38.67,24.86c2.34-12.18,3.38-24.61,2.99-37.33
						c8.76-34.51,4.27-17.71,16.73-61.25c-8.21,45.38-4.54,26.87-12.48,64.29c36.77-24.81,15.08-82.17,14.89-82.03
						c-0.12-0.23-17.81,16.84-24.96,39.1c-2.32-8.95-5.33-18.05-9.09-27.31c-0.7-1.72-1.42-3.43-2.17-5.14
						c34.02-30.43,1.12-84.27,0.95-84.1c-0.18-0.23-18.91,25.61-17.98,52.62c-6.37-9.69-13.49-18.74-21.26-27.03
						c0.62,0.45,1.24,0.89,1.9,1.33c-7.05-37.21-3.81-18.83-11.01-64.26c12.07,45.97,6.93,25.08,16.65,67.14
						c26.95-38.83-22.45-82.41-22.56-82.2c-0.29-0.2-14.81,41.18,4.97,68.02c-11-10.12-23.07-18.79-35.99-25.71
						c-21.72-33.88-11.18-16.95-35.21-57c28.4,38.17,15.78,20.65,40.6,56.14c8.18-41.62-48.53-66.45-48.56-66.23
						c-0.31-0.09-1.21,35.2,18.77,56.48c-9.77-3.31-19.88-5.65-30.27-6.92c0.33-0.06,0.65-0.1,0.98-0.16
						c-37.88-24.04-19.15-11.78-58.9-38.67c42.28,22.84,22.64,11.84,61.67,34.44c-8.83-42.38-73.47-42.13-73.41-41.91
						c-0.35,0.04,15.81,36.56,47.02,45.27c-10.93,0.32-22.08,1.84-33.36,4.67c0.33-0.21,0.67-0.42,1-0.65
						c-57.17-4.87-40.19-5.69-70.25-10.31c49.01,2.59,24.54,0.94,73.42,4.95c0.25,0.03,0.48,0.08,0.7,0.17
						c-27.47-35.4-87.33-5.97-87.17-5.81c-0.28,0.18,27.69,22.14,57.83,19.81c-3.94,1.64-7.89,3.43-11.84,5.41
						c-8.91,4.46-17.29,9.74-25.01,15.73c3.08-3.05,5.88-6.6,8.27-10.74c-31.33,9.63-16.2,5.18-58.98,16.91
						c41.92-16.13,26.21-10.4,58.7-21.78c-40.35-19.9-82.43,30.09-82.21,30.17c-0.19,0.29,39.99,9.9,67.15-8.73
						c-22.87,20.12-38.92,46.85-44.22,76.87l-0.12,1.61c-30.08,36.9,14.37,84.43,14.49,84.22c0.31,0.25,24.33-52-7.43-79.28
						c-4.56,21.36-1.67,40.56,4.21,64.42c-11.5-26-11.77-48.21-9.95-61.71c2.97-12.72,6.59-24.49,11.3-35.36
						c-5.95,32.63,27.54,64.54,27.65,64.36c0.33,0.24,21.94-54.74-14.11-80.18c-3.53,19.35,0.27,35.12,7.36,55.04
						c-16.24-28.58-12.51-52.58-11.01-56.95c-0.01-0.11,0-0.26,0.03-0.43l-0.3-0.17c6.61-10.49,14.81-19.97,25.16-28.48
						c-16.21,32.24,13.96,73,14.09,72.83c0.28,0.29,30.18-49.48,1.03-80.58c-6.83,21.38-4.22,38.37,1.92,60.54
						c-14.15-29.67-8.71-53.34-6.9-57.6c0-0.63,0.67-2.37,1.46-3.74c6.1-4.01,12.81-7.78,20.22-11.3
						c27.06-12.86,53.67-17.6,78.69-15.82c-34.89,12.58-43.33,63.37-43.12,63.34c-0.01,0.4,56.07-15.93,58.8-57.97
						c-16.88,8.26-27.29,20.23-39.11,37c11.98-25.51,29.69-37.08,37.29-40.68c15.52,2.65,30.32,7.81,44.1,15.09
						c-39.24-7.29-71.38,40.6-71.17,40.66c-0.19,0.37,58.05,7.71,77.99-30.95c-18.42,0.52-32.76,6.95-50.29,17.02
						c22.77-19.01,44.76-21.36,52.19-21.13l0.2-0.49c10.67,6.56,20.64,14.42,29.76,23.35c-32.72-7.55-69.43,22.22-69.27,22.32
						c-0.28,0.29,48.68,22.64,79.88-3.84c-19.58-6.48-36.06-4.59-57.34,0.26c30.29-12.77,53.68-6.24,57.85-4.24
						c0.48,0.02,1.58,0.46,2.67,1.05l0.19-0.19c8.26,10.15,15.57,21.29,21.77,33.2c-25.04-22.92-73.31-11.01-73.21-10.84
						c-0.39,0.15,35.29,44.68,77.02,29.19c-15.42-13.57-31.27-18.32-52.69-22.22c32.87,0.19,51.8,15.4,54.85,18.89
						c0.38,0.18,1.09,0.87,1.79,1.69c0.46,1.14,0.93,2.28,1.38,3.43c5.29,13.57,8.93,26.72,11.05,39.53
						c-17.53-22.05-53.28-29.04-53.27-28.87c-0.4-0.03,10.63,52.88,51.95,58.74c-8.78-20.2-21.77-31.27-40.69-43.9
						c30.09,13.23,41.43,34.71,42.83,39.12c0.46,0.53,1.18,2.64,1.42,4.29c-0.21,14.82-2.47,29.2-6.57,43.24
						c-6.3-27.13-34.76-47.87-34.83-47.71c-0.35-0.2-13.76,53.29,21.07,75.46c0.31-20.76-6.47-35.94-17.58-54.83
						c20.12,23.6,22.01,46.54,21.62,52.9c-11.02,23.92-27.24,46.99-47.43,69.73c-2.65,2.75-2.55,6.99,0.22,9.48
						c2.77,2.48,7.16,2.26,9.81-0.49C1057.45,387.5,1073.83,363.86,1085.19,339.43L1085.19,339.43z M1084.58,182.02
						c-1.25-2.78-2.57-5.51-3.94-8.22c4.17-31.81,1.99-16.61,9.06-60.16C1086.81,160.85,1088.43,139.85,1084.58,182.02
						L1084.58,182.02z M793.1,132.72c-34.3,23.96-17.41,11.81-55.26,39.96c39.32-23.57,23.72-13.85,55.19-34.03
						c-10.67,42.84-70.91,47.09-70.8,46.69C721.99,185.33,747.06,124.39,793.1,132.72L793.1,132.72z M885.5,87.02
						c-0.59,0.61-1.03,1.17-1.16,1.49c-3.26,3.28-17.09,23.24-14.96,56.05c2.4-21.76,6.03-37.97,18.65-54.4
						c20.1,40.26-27.72,79.77-27.88,79.4C859.95,169.68,842.36,107.19,885.5,87.02z"/>
				</g>
				<g>
					<path class="st2" d="M267.14,445.46c-28.76-2.26-93.65-11.49-154.02-59.94c-53.55-42.98-77.13-95.63-86.93-122.49
						c-0.11,13.84,0.58,93.67,63.44,147.75C162.2,473.22,256.27,448.51,267.14,445.46z"/>
					<path class="st2" d="M178.91,446.72c1.98,0.69,5.74,2.35,7.69,6.07c0.74,1.41,1.15,3,1.01,8.6
						c-0.21,8.39-1.38,14.63-1.63,15.88c-0.92,4.75-1.49,7.73-2.99,11.68c-0.77,2.03-2.05,4.98-6.43,12.09
						c-4.67,7.57-6.2,9.04-8.15,12.29c-1.84,3.08-9.27,15.49-5.58,26.81c3.55,10.89,16.24,16.88,26.5,17.82
						c18.6,1.71,30.76-14.93,33.55-18.75c7.71-10.55,8.82-21.39,9.57-29.89c2.06-23.03-5.68-41.93-11.41-52.72l11.84-3.13
						c13.07-2.08,19.56-3.71,19.48-4.9C252.2,446.3,227.72,445.68,178.91,446.72z"/>
				</g>
				<g>
					<path class="st2" d="M392.2,568.69l-1.94,2.5l0.47,5.09l-5.71,0.52l-1.87-20.38l5.71-0.52l0.78,8.47l7.11-9.2l6.35-0.58
						l-7.5,9.79l9.8,10.55l-6.69,0.62L392.2,568.69z"/>
					<path class="st2" d="M438.99,551.3l1.87,20.38l-4.75,0.44l-9.99-10.03l1,10.86l-5.65,0.52l-1.87-20.38l4.74-0.44l9.99,10.03
						l-1-10.86L438.99,551.3z"/>
					<path class="st2" d="M457.52,559.87c-0.56-6.11,3.83-11.04,10.35-11.64c6.52-0.6,11.73,3.44,12.3,9.56
						c0.56,6.11-3.83,11.04-10.35,11.64C463.3,570.02,458.08,565.98,457.52,559.87z M474.35,558.32c-0.32-3.52-2.95-5.6-6.04-5.32
						c-3.09,0.28-5.29,2.81-4.96,6.33c0.32,3.52,2.95,5.6,6.04,5.32S474.67,561.84,474.35,558.32z"/>
					<path class="st2" d="M528.09,543.11l-4.73,20.98l-6.17,0.57l-5.04-12.04l-2.94,12.78l-6.17,0.57l-8.48-19.77l5.94-0.55
						l5.3,12.63l3.11-13.41l5.3-0.49l5.31,12.75l3.07-13.52L528.09,543.11z"/>
					<path class="st2" d="M600.15,536.48l-4.73,20.98l-6.17,0.57l-5.04-12.04l-2.94,12.78l-6.17,0.57l-8.48-19.77l5.94-0.55
						l5.3,12.63l3.11-13.41l5.3-0.49l5.31,12.75l3.07-13.52L600.15,536.48z"/>
					<path class="st2" d="M636.17,533.17l1.87,20.38l-5.76,0.53l-0.73-7.95l-7.86,0.72l0.73,7.95l-5.76,0.53l-1.87-20.38l5.76-0.53
						l0.7,7.65l7.86-0.72l-0.7-7.65L636.17,533.17z"/>
					<path class="st2" d="M669.97,546.62l-8.62,0.79l-1.24,4.11l-5.88,0.54l7.12-21.2l5.68-0.52l10.9,19.55l-6,0.55L669.97,546.62z
						 M667.89,542.52l-3.22-6.28l-2.02,6.76L667.89,542.52z"/>
					<path class="st2" d="M696,532.28l-6.26,0.58l-0.42-4.57l18.25-1.68l0.42,4.57l-6.23,0.57l1.45,15.8l-5.76,0.53L696,532.28z"/>
					<path class="st2" d="M759.43,535.02l0.67,7.31l-5.76,0.53l-0.68-7.39l-8.97-12.27l6.08-0.56l5.58,7.65l4.09-8.54l5.59-0.51
						L759.43,535.02z"/>
					<path class="st2" d="M781.07,530.12c-0.56-6.11,3.83-11.04,10.35-11.64c6.52-0.6,11.73,3.44,12.3,9.56
						c0.56,6.11-3.83,11.04-10.35,11.64C786.85,540.28,781.63,536.24,781.07,530.12z M797.89,528.58c-0.32-3.52-2.95-5.6-6.04-5.32
						c-3.09,0.28-5.29,2.81-4.97,6.33c0.32,3.52,2.95,5.6,6.04,5.31C796.01,534.62,798.22,532.1,797.89,528.58z"/>
					<path class="st2" d="M821.24,527.55l-1.04-11.29l5.76-0.53l1.02,11.12c0.32,3.49,1.91,4.76,4.32,4.53
						c2.39-0.22,3.72-1.75,3.39-5.24l-1.02-11.12l5.68-0.52l1.04,11.29c0.56,6.08-2.68,9.81-8.7,10.37
						C825.66,536.71,821.79,533.63,821.24,527.55z"/>
					<path class="st2" d="M898.67,525.1l0.41,4.45l-16.36,1.5l-1.87-20.38l15.98-1.47l0.41,4.45l-10.27,0.94l0.32,3.43l9.05-0.83
						l0.4,4.31l-9.05,0.83l0.34,3.73L898.67,525.1z"/>
					<path class="st2" d="M930.13,522.7l-8.62,0.79l-1.24,4.11l-5.88,0.54l7.12-21.2l5.68-0.52l10.9,19.55l-6,0.55L930.13,522.7z
						 M928.05,518.61l-3.22-6.28l-2.02,6.76L928.05,518.61z"/>
					<path class="st2" d="M956.15,508.36l-6.26,0.57l-0.42-4.57l18.25-1.68l0.42,4.57l-6.23,0.57l1.45,15.8l-5.76,0.53
						L956.15,508.36z"/>
				</g>
				<g>
					<path class="st0" d="M393.3,353.63c1.42,5.08,2.62,10.21,3.72,15.37c1.05,5.17,1.95,10.37,2.7,15.59
						c0.75,5.23,1.3,10.46,1.87,15.71c0.54,5.25,0.99,10.51,1.15,15.8c0.26,10.57-0.78,21.26-3.83,31.41
						c-2.98,10.16-7.67,19.79-13.75,28.4c2.8-4.46,5.34-9.08,7.46-13.89c2.16-4.78,3.96-9.73,5.33-14.79
						c1.37-5.06,2.4-10.2,2.95-15.41c0.57-5.21,0.7-10.45,0.55-15.69c-0.26-10.49-1.56-20.96-2.7-31.41
						C397.46,374.28,395.6,363.92,393.3,353.63z"/>
					<path class="st0" d="M478.9,295.75c3.94,1.13,7.74,2.77,11.33,4.81c3.56,2.08,6.87,4.6,9.83,7.49
						c5.9,5.82,10.19,13.21,12.63,21.12c1.2,3.97,1.96,8.06,2.34,12.17c0.35,4.11,0.49,8.25,0.12,12.37
						c-0.39,4.11-1.13,8.19-2.29,12.14c-1.18,3.94-2.7,7.78-4.61,11.41c1.64-3.75,3.04-7.61,4-11.58c1.03-3.95,1.65-7.99,1.91-12.05
						c0.38-8.1-0.28-16.36-2.71-24.09c-1.17-3.88-2.76-7.63-4.79-11.13c-2.02-3.51-4.53-6.72-7.31-9.68
						C493.71,302.91,486.61,298.52,478.9,295.75z"/>
					<path class="st0" d="M514.77,435.97c0.19,4.64,0.93,9.22,2.3,13.61c1.31,4.42,2.95,8.73,5.56,12.47
						c2.56,3.75,6.02,6.86,10.01,9.06c1.99,1.12,4.12,1.98,6.33,2.63c2.2,0.68,4.48,1.09,6.79,1.36c-4.64,0.03-9.35-1-13.57-3.1
						c-4.25-2.07-7.92-5.31-10.61-9.21c-2.69-3.92-4.35-8.42-5.45-12.94c-0.59-2.26-1.02-4.57-1.26-6.89
						C514.66,440.63,514.59,438.29,514.77,435.97z"/>
					<path class="st0" d="M832.72,404.99c0.19,4.64,0.93,9.22,2.3,13.61c1.31,4.42,2.95,8.73,5.56,12.47
						c2.56,3.75,6.02,6.86,10.01,9.06c1.99,1.12,4.12,1.98,6.33,2.63c2.2,0.68,4.48,1.09,6.79,1.36c-4.64,0.03-9.35-1-13.57-3.1
						c-4.25-2.07-7.92-5.31-10.61-9.21c-2.69-3.92-4.35-8.42-5.45-12.94c-0.59-2.26-1.02-4.57-1.26-6.89
						C832.61,409.65,832.54,407.31,832.72,404.99z"/>
					<path class="st0" d="M944.8,393.51c-0.24-2.68-0.2-5.38,0.01-8.07c0.24-2.69,0.71-5.36,1.38-7.98
						c0.65-2.63,1.61-5.18,2.72-7.65c1.1-2.48,2.41-4.87,3.91-7.13c3.05-4.49,6.76-8.53,11.02-11.87c2.14-1.65,4.4-3.16,6.77-4.46
						c2.38-1.27,4.84-2.38,7.39-3.23c-4.89,2.21-9.47,5.03-13.53,8.46c-4.05,3.44-7.68,7.38-10.58,11.82
						c-3,4.37-5.21,9.26-6.75,14.34C945.61,382.81,944.87,388.14,944.8,393.51z"/>
					<path class="st0" d="M1018.26,230.87c1.34,0.04,2.69,0.37,3.9,0.98c1.22,0.61,2.3,1.5,3.12,2.61c0.84,1.09,1.37,2.42,1.61,3.78
						c0.24,1.37,0.2,2.77-0.14,4.14l0.01-0.08c-0.31,7.34-0.6,14.69-1,22.02c-0.38,7.34-0.73,14.68-1.2,22.01
						c-0.45,7.34-0.85,14.67-1.39,22c-0.49,7.33-1.04,14.66-1.66,21.99c0.19-7.35,0.46-14.69,0.78-22.04
						c0.28-7.34,0.69-14.68,1.06-22.02c0.35-7.34,0.81-14.67,1.25-22.01c0.41-7.34,0.94-14.67,1.45-22l0-0.04l0.01-0.04
						c0.65-2.47,0.38-5.32-1.12-7.49C1023.49,232.5,1020.92,231.12,1018.26,230.87z"/>
					<path class="st0" d="M684.34,374.01c2.68-0.57,5.5-0.64,8.23,0c2.7,0.67,5.26,2.14,7.17,4.22c1.96,2.06,3.19,4.68,4.11,7.29
						c0.91,2.63,1.5,5.34,2.04,8.04c1.05,5.4,1.5,10.97,1.14,16.47c-0.18,2.75-0.53,5.49-1.04,8.19c-0.55,2.69-1.21,5.36-2.08,7.96
						c1.19-5.35,2-10.76,2.13-16.2c0.15-5.44-0.28-10.86-1.42-16.19c-0.49-2.68-1.03-5.35-1.88-7.9c-0.83-2.55-2.02-4.99-3.74-7.01
						c-1.7-2.03-4.04-3.5-6.6-4.28C689.84,373.81,687.06,373.73,684.34,374.01z"/>
					<path class="st0" d="M788.7,360.97c2.68-0.57,5.5-0.64,8.23,0c2.7,0.67,5.26,2.14,7.17,4.22c1.96,2.06,3.19,4.68,4.11,7.29
						c0.91,2.63,1.5,5.34,2.04,8.04c1.05,5.4,1.5,10.97,1.14,16.47c-0.18,2.75-0.53,5.49-1.04,8.19c-0.55,2.69-1.21,5.36-2.08,7.96
						c1.19-5.35,2-10.76,2.13-16.2c0.15-5.44-0.28-10.86-1.42-16.19c-0.49-2.68-1.03-5.35-1.88-7.9c-0.83-2.55-2.02-4.99-3.74-7.01
						c-1.7-2.03-4.04-3.5-6.6-4.28C794.19,360.76,791.41,360.68,788.7,360.97z"/>
					<path class="st0" d="M211.79,456.68c2.33,4.31,5.09,10.84,5.83,19.09c1.81,19.98-9.53,34.62-12.59,38.33
						c1.68-10.32,2.25-19.02,2.41-25.45c0.3-11.67-0.9-16.97-1.3-18.72c-1.62-7.12-4.3-12.65-6.41-16.33
						C203.76,454.63,207.77,455.66,211.79,456.68z"/>
					<g>
						<path class="st0" d="M178.5,164.35c1.42,5.08,2.62,10.21,3.72,15.37c1.05,5.17,1.95,10.37,2.7,15.59
							c0.75,5.23,1.3,10.46,1.87,15.71c0.54,5.25,0.99,10.51,1.15,15.8c0.26,10.57-0.78,21.26-3.83,31.41
							c-2.98,10.16-7.67,19.79-13.75,28.4c2.8-4.46,5.34-9.08,7.46-13.89c2.16-4.78,3.96-9.73,5.33-14.79
							c1.37-5.06,2.4-10.2,2.95-15.41c0.57-5.21,0.7-10.45,0.55-15.69c-0.26-10.49-1.56-20.96-2.7-31.41
							C182.66,185,180.8,174.63,178.5,164.35z"/>
						<path class="st0" d="M264.11,106.47c3.94,1.13,7.74,2.77,11.33,4.81c3.56,2.08,6.87,4.6,9.83,7.49
							c5.9,5.82,10.19,13.21,12.63,21.12c1.2,3.97,1.96,8.06,2.34,12.17c0.35,4.11,0.49,8.25,0.12,12.37
							c-0.39,4.11-1.13,8.19-2.29,12.14c-1.18,3.94-2.7,7.78-4.61,11.41c1.64-3.75,3.04-7.61,4-11.58
							c1.03-3.95,1.65-7.99,1.91-12.05c0.38-8.1-0.28-16.36-2.71-24.09c-1.17-3.88-2.76-7.63-4.79-11.13
							c-2.02-3.51-4.53-6.72-7.31-9.68C278.92,113.63,271.81,109.23,264.11,106.47z"/>
						<path class="st0" d="M410.85,233.65c-0.01-2.69,0.28-5.37,0.71-8.04c0.48-2.66,1.18-5.28,2.08-7.83
							c0.87-2.57,2.06-5.02,3.38-7.39c1.31-2.37,2.83-4.64,4.52-6.76c3.43-4.2,7.49-7.9,12.03-10.86c2.28-1.46,4.66-2.76,7.13-3.84
							c2.49-1.05,5.03-1.95,7.65-2.57c-5.07,1.77-9.88,4.18-14.23,7.24c-4.34,3.07-8.3,6.68-11.57,10.84
							c-3.37,4.09-6.01,8.76-7.99,13.69C412.6,223.06,411.39,228.31,410.85,233.65z"/>
						<path class="st0" d="M487.48,73.86c1.34,0.04,2.69,0.37,3.9,0.98c1.22,0.61,2.3,1.5,3.12,2.61c0.84,1.09,1.37,2.42,1.61,3.78
							c0.24,1.37,0.2,2.77-0.14,4.14l0.01-0.08c-0.31,7.34-0.6,14.69-1,22.02c-0.38,7.34-0.73,14.68-1.2,22.01
							c-0.45,7.34-0.85,14.67-1.39,22c-0.49,7.33-1.04,14.66-1.66,21.99c0.19-7.35,0.46-14.69,0.78-22.04
							c0.28-7.34,0.69-14.68,1.05-22.02c0.35-7.34,0.81-14.67,1.25-22.01c0.41-7.34,0.94-14.67,1.45-22l0-0.04l0.01-0.04
							c0.65-2.47,0.38-5.32-1.12-7.49C492.72,75.48,490.15,74.11,487.48,73.86z"/>
						<path class="st0" d="M520.1,225.49c-0.01-2.69,0.28-5.37,0.71-8.04c0.48-2.66,1.18-5.28,2.08-7.83
							c0.87-2.57,2.06-5.02,3.38-7.39c1.31-2.37,2.83-4.64,4.52-6.76c3.43-4.2,7.49-7.9,12.03-10.86c2.28-1.46,4.66-2.76,7.13-3.84
							c2.49-1.05,5.03-1.95,7.65-2.57c-5.07,1.77-9.88,4.18-14.23,7.24c-4.34,3.07-8.3,6.68-11.57,10.84
							c-3.37,4.09-6.01,8.76-7.99,13.69C521.85,214.91,520.64,220.16,520.1,225.49z"/>
						<path class="st0" d="M596.73,65.7c1.34,0.04,2.69,0.37,3.9,0.98c1.22,0.61,2.3,1.5,3.12,2.61c0.84,1.09,1.37,2.42,1.61,3.78
							c0.24,1.37,0.2,2.77-0.14,4.14l0.01-0.08c-0.31,7.34-0.6,14.69-1,22.02c-0.38,7.34-0.73,14.68-1.19,22.01
							c-0.45,7.34-0.85,14.67-1.39,22c-0.49,7.33-1.04,14.66-1.66,21.99c0.19-7.35,0.46-14.69,0.78-22.04
							c0.28-7.34,0.69-14.68,1.05-22.02c0.35-7.34,0.81-14.67,1.25-22.01c0.41-7.34,0.94-14.67,1.44-22l0-0.04l0.01-0.04
							c0.65-2.47,0.38-5.32-1.12-7.49C601.96,67.33,599.4,65.96,596.73,65.7z"/>
						<path class="st0" d="M639.12,276.04c-2.92,2.82-4.77,6.44-5.08,10.3c-0.38,3.85,0.89,7.74,3.45,10.89
							c-1.62-1.22-2.97-2.89-3.77-4.83c-0.84-1.93-1.13-4.08-0.96-6.18c0.2-2.09,0.84-4.16,1.96-5.93
							C635.82,278.52,637.36,277.05,639.12,276.04z"/>
						<path class="st0" d="M647.27,161.9c1.66-0.85,3.8-0.92,5.5,0.06c1.73,0.93,2.87,2.82,3.05,4.8l0,0.03l0,0.04l-0.47,6.13
							l-0.56,6.12c-0.36,4.08-0.75,8.16-1.21,12.23c-0.44,4.07-0.86,8.15-1.39,12.21c-0.49,4.07-1.04,8.13-1.65,12.19
							c0.2-4.1,0.47-8.19,0.79-12.27c0.29-4.09,0.67-8.17,1.05-12.25c0.35-4.08,0.78-8.16,1.23-12.23l0.66-6.11l0.75-6.1l0,0.07
							c-0.08-1.74-1-3.46-2.49-4.45C651.04,161.36,649.02,161.25,647.27,161.9z"/>
						<path class="st0" d="M704.34,152.12c1.66-0.85,3.8-0.92,5.5,0.06c1.73,0.93,2.87,2.82,3.05,4.8l0,0.03l0,0.04l-0.47,6.13
							l-0.56,6.12c-0.36,4.08-0.75,8.16-1.21,12.23c-0.44,4.07-0.86,8.15-1.39,12.21c-0.49,4.07-1.04,8.13-1.65,12.19
							c0.2-4.1,0.47-8.19,0.79-12.27c0.29-4.09,0.67-8.17,1.05-12.25c0.35-4.08,0.78-8.16,1.23-12.23l0.66-6.11l0.75-6.1l0,0.07
							c-0.08-1.74-1-3.46-2.49-4.45C708.11,151.58,706.09,151.47,704.34,152.12z"/>
						<path class="st0" d="M707.6,243.43c2.79-1.49,5.48-3.11,8.01-4.93c2.52-1.84,4.91-3.84,7.11-6.04c2.2-2.2,4.22-4.58,6.05-7.1
							c0.92-1.26,1.78-2.57,2.59-3.91c0.84-1.33,1.58-2.71,2.33-4.1c-0.48,1.51-1.12,2.96-1.78,4.4c-0.7,1.43-1.48,2.81-2.32,4.16
							c-1.68,2.71-3.72,5.19-5.96,7.46c-2.28,2.24-4.76,4.27-7.47,5.95c-1.35,0.84-2.74,1.62-4.16,2.32
							C710.56,242.3,709.11,242.94,707.6,243.43z"/>
					</g>
					<path class="st0" d="M299.25,247.18c0.19,4.64,0.93,9.22,2.3,13.61c1.31,4.42,2.95,8.73,5.56,12.47
						c2.56,3.75,6.02,6.86,10.01,9.06c1.99,1.12,4.12,1.98,6.33,2.63c2.2,0.68,4.48,1.09,6.79,1.36c-4.64,0.03-9.35-1-13.57-3.1
						c-4.25-2.07-7.92-5.31-10.61-9.21c-2.69-3.92-4.35-8.42-5.45-12.94c-0.59-2.26-1.02-4.57-1.26-6.89
						C299.13,251.83,299.07,249.49,299.25,247.18z"/>
				</g>
			</g>
		</g>
	</g>
</g>
</svg>
